<svg width="500" height="500" viewBox="0 0 500 500" fill="none" xmlns="http://www.w3.org/2000/svg">
<path d="M500 382.4H0V382.65H500V382.4Z" fill="#EBEBEB"/>
<path d="M449.9 398.49H423.67V398.74H449.9V398.49Z" fill="#EBEBEB"/>
<path d="M356.76 395.24H322.53V395.49H356.76V395.24Z" fill="#EBEBEB"/>
<path d="M415.77 389.21H389.33V389.46H415.77V389.21Z" fill="#EBEBEB"/>
<path d="M110.89 390.89H67.7V391.14H110.89V390.89Z" fill="#EBEBEB"/>
<path d="M58.79 390.89H52.46V391.14H58.79V390.89Z" fill="#EBEBEB"/>
<path d="M187.67 395.11H131.47V395.36H187.67V395.11Z" fill="#EBEBEB"/>
<path d="M237 337.8H43.91C42.3973 337.797 40.9475 337.195 39.8788 336.124C38.8102 335.053 38.21 333.603 38.21 332.09V60.66C38.2231 59.156 38.8292 57.718 39.8964 56.6582C40.9637 55.5985 42.4059 55.0026 43.91 55H237C238.514 55 239.967 55.6016 241.038 56.6724C242.108 57.7433 242.71 59.1956 242.71 60.71V332.09C242.71 333.604 242.108 335.057 241.038 336.128C239.967 337.198 238.514 337.8 237 337.8ZM43.91 55.2C42.4636 55.2026 41.0774 55.7791 40.0556 56.8027C39.0338 57.8264 38.46 59.2136 38.46 60.66V332.09C38.46 333.536 39.0338 334.924 40.0556 335.947C41.0774 336.971 42.4636 337.547 43.91 337.55H237C238.447 337.547 239.834 336.971 240.858 335.948C241.881 334.924 242.457 333.537 242.46 332.09V60.66C242.457 59.2127 241.881 57.8255 240.858 56.8021C239.834 55.7787 238.447 55.2026 237 55.2H43.91Z" fill="#EBEBEB"/>
<path d="M453.31 337.8H260.21C258.696 337.797 257.246 337.195 256.175 336.125C255.105 335.054 254.503 333.604 254.5 332.09V60.66C254.516 59.1551 255.124 57.7171 256.193 56.6576C257.262 55.5981 258.705 55.0025 260.21 55H453.31C454.812 55.0052 456.252 55.6022 457.317 56.6617C458.382 57.7212 458.987 59.1578 459 60.66V332.09C459 333.601 458.401 335.05 457.335 336.121C456.268 337.191 454.821 337.795 453.31 337.8ZM260.21 55.2C258.763 55.2026 257.375 55.7787 256.352 56.8021C255.329 57.8255 254.753 59.2127 254.75 60.66V332.09C254.753 333.537 255.329 334.924 256.352 335.948C257.375 336.971 258.763 337.547 260.21 337.55H453.31C454.757 337.547 456.145 336.971 457.168 335.948C458.191 334.924 458.767 333.537 458.77 332.09V60.66C458.767 59.2127 458.191 57.8255 457.168 56.8021C456.145 55.7787 454.757 55.2026 453.31 55.2H260.21Z" fill="#EBEBEB"/>
<path d="M337.94 83.46H66.6201V238.9H337.94V83.46Z" fill="#E6E6E6"/>
<path d="M341.98 83.46H68.51V238.9H341.98V83.46Z" fill="#F0F0F0"/>
<path d="M336.33 232.55V89.8L74.1601 89.8V232.55L336.33 232.55Z" fill="#FAFAFA"/>
<path d="M106.34 232.55L139.49 89.8H182.96L149.8 232.55H106.34Z" fill="white"/>
<path d="M156.84 232.55L189.99 89.8H209.62L176.47 232.55H156.84Z" fill="white"/>
<path d="M234.72 232.55L267.88 89.8H301.41L268.25 232.55H234.72Z" fill="white"/>
<path d="M336.33 232.56V89.81H335.61V232.56H336.33Z" fill="#E6E6E6"/>
<path d="M213.4 83.46H197.1V238.9H213.4V83.46Z" fill="#F0F0F0"/>
<path d="M197.1 232.55V89.8H196.38V232.55H197.1Z" fill="#E6E6E6"/>
<path d="M205.53 83.46H204.96V238.9H205.53V83.46Z" fill="#E6E6E6"/>
<g opacity="0.7">
<path d="M321.4 200.39H347.48V75.23H321.4V200.39Z" fill="#EBEBEB"/>
<path d="M321.4 75.22H304.51V185.77H321.4V75.22Z" fill="#E0E0E0"/>
<path d="M278.43 200.39H304.51V75.23H278.43V200.39Z" fill="#EBEBEB"/>
<path d="M278.43 75.22H261.54V185.77H278.43V75.22Z" fill="#E0E0E0"/>
<path d="M235.46 200.39H261.54V75.23H235.46V200.39Z" fill="#EBEBEB"/>
<path d="M235.46 75.22H218.57V185.77H235.46V75.22Z" fill="#E0E0E0"/>
<path d="M192.49 200.39H218.57L218.57 75.23H192.49V200.39Z" fill="#EBEBEB"/>
<path d="M192.49 75.22H175.6V185.77H192.49V75.22Z" fill="#E0E0E0"/>
<path d="M149.52 200.39H175.6L175.6 75.23H149.52V200.39Z" fill="#EBEBEB"/>
<path d="M149.52 75.22H132.63V185.77H149.52V75.22Z" fill="#E0E0E0"/>
<path d="M106.55 200.39H132.63L132.63 75.23H106.55L106.55 200.39Z" fill="#EBEBEB"/>
<path d="M63.5802 200.39H89.6602L89.6602 75.23H63.5802L63.5802 200.39Z" fill="#EBEBEB"/>
<path d="M106.55 75.22H89.6602V185.77H106.55V75.22Z" fill="#E0E0E0"/>
</g>
<path d="M433.19 284.33H399.64V382.4H433.19V284.33Z" fill="#E6E6E6"/>
<path d="M424.22 382.4H433.18V365.48H414.83L424.22 382.4Z" fill="#F5F5F5"/>
<path d="M228.01 284.33H194.46V382.4H228.01V284.33Z" fill="#E6E6E6"/>
<path d="M433.18 284.33H220.19V376.57H433.18V284.33Z" fill="#F5F5F5"/>
<path d="M229.14 382.4H220.19V365.48H238.54L229.14 382.4Z" fill="#F5F5F5"/>
<path d="M426.24 292.42H227.14V326.56H426.24V292.42Z" fill="#E6E6E6"/>
<path d="M426.24 333.87H227.14V368.01H426.24V333.87Z" fill="#E6E6E6"/>
<path d="M396.03 136.63H447.3V128.41H396.03V136.63Z" fill="#F0F0F0"/>
<path d="M396.04 128.41H371.59V136.63H396.04V128.41Z" fill="#E6E6E6"/>
<path d="M396.98 136.63H421.67L403.67 148.38H396.98V136.63Z" fill="#EBEBEB"/>
<path d="M394.4 136.63H419.09L401.09 148.38H394.4V136.63Z" fill="#E0E0E0"/>
<path d="M415.3 128.41H431.35V93.21H415.3V128.41Z" fill="#E6E6E6"/>
<path d="M435.99 93.2H431.35V128.4H435.99V93.2Z" fill="#F0F0F0"/>
<path d="M394.62 96.31H415.3L420.29 128.41H399.6L394.62 96.31Z" fill="#E6E6E6"/>
<path d="M421.28 96.31H415.3L420.29 128.41H426.27L421.28 96.31Z" fill="#F0F0F0"/>
<path d="M385.08 128.41H408.52V92.03H385.08V128.41Z" fill="#EBEBEB"/>
<path d="M415.3 92.03H408.52V128.41H415.3V92.03Z" fill="#F5F5F5"/>
<path d="M403.08 128.41H402.08V106.51C402.08 105.605 401.902 104.709 401.555 103.873C401.209 103.037 400.702 102.278 400.062 101.638C399.422 100.998 398.662 100.491 397.827 100.144C396.991 99.7982 396.095 99.62 395.19 99.62C394.285 99.62 393.389 99.7982 392.553 100.144C391.717 100.491 390.958 100.998 390.318 101.638C389.678 102.278 389.171 103.037 388.824 103.873C388.478 104.709 388.3 105.605 388.3 106.51V128.41H387.3V106.51C387.3 105.474 387.504 104.448 387.9 103.491C388.297 102.533 388.878 101.664 389.611 100.931C390.343 100.198 391.213 99.6171 392.17 99.2206C393.128 98.8241 394.154 98.62 395.19 98.62C396.226 98.62 397.252 98.8241 398.209 99.2206C399.166 99.6171 400.036 100.198 400.769 100.931C401.502 101.664 402.083 102.533 402.479 103.491C402.876 104.448 403.08 105.474 403.08 106.51V128.41Z" fill="#E0E0E0"/>
<path d="M396.03 207.94H447.3V199.72H396.03V207.94Z" fill="#F0F0F0"/>
<path d="M396.04 199.71H371.59V207.93H396.04V199.71Z" fill="#E6E6E6"/>
<path d="M396.98 207.93H421.67L403.67 219.69H396.98V207.93Z" fill="#EBEBEB"/>
<path d="M394.4 207.93H419.09L401.09 219.69H394.4V207.93Z" fill="#E0E0E0"/>
<path d="M409.83 199.71H433.27V173.68H409.83V199.71Z" fill="#E0E0E0"/>
<path d="M439.28 173.68H433.27V199.71H439.28V173.68Z" fill="#F0F0F0"/>
<path d="M402.58 199.71H422.67V166.32H402.58V199.71Z" fill="#E0E0E0"/>
<path d="M426.76 166.32H422.67V199.71H426.76V166.32Z" fill="#EBEBEB"/>
<path d="M396.1 199.71H413.71V169.66H396.1V199.71Z" fill="#E6E6E6"/>
<path d="M418.8 169.67H413.71V199.72H418.8V169.67Z" fill="#F0F0F0"/>
<path d="M385.08 199.71H408.52V173.68H385.08V199.71Z" fill="#F0F0F0"/>
<path d="M411.91 173.68H408.52V199.71H411.91V173.68Z" fill="#FAFAFA"/>
<path d="M403.08 199.71H402.08V177.82C402.08 175.993 401.354 174.24 400.062 172.948C398.77 171.656 397.017 170.93 395.19 170.93C393.362 170.93 391.61 171.656 390.318 172.948C389.026 174.24 388.3 175.993 388.3 177.82V199.71H387.3V177.82C387.3 175.727 388.131 173.721 389.611 172.241C391.09 170.761 393.097 169.93 395.19 169.93C397.282 169.93 399.289 170.761 400.769 172.241C402.249 173.721 403.08 175.727 403.08 177.82V199.71Z" fill="#E0E0E0"/>
<path d="M151.7 300.72H143.07V382.4H151.7V300.72Z" fill="#F5F5F5"/>
<path d="M155.46 300.72H147.95V382.4H155.46V300.72Z" fill="#F0F0F0"/>
<path d="M64.6901 300.72H56.0601V382.4H64.6901V300.72Z" fill="#F5F5F5"/>
<path d="M68.4499 300.72H60.9399V382.4H68.4499V300.72Z" fill="#F0F0F0"/>
<path d="M184.42 300.72H175.79V382.4H184.42V300.72Z" fill="#F5F5F5"/>
<path d="M188.17 300.72H180.66V382.4H188.17V300.72Z" fill="#F0F0F0"/>
<path d="M97.41 300.72H88.78V382.4H97.41V300.72Z" fill="#F5F5F5"/>
<path d="M56.0699 302.78H188.18V292.42H56.0699V302.78Z" fill="#F0F0F0"/>
<path d="M56.0699 302.78H93.6599V292.42H56.0699V302.78Z" fill="#E6E6E6"/>
<path d="M101.17 300.72H93.6599V382.4H101.17V300.72Z" fill="#F0F0F0"/>
<path d="M250 427.56C357.083 427.56 443.89 422.492 443.89 416.24C443.89 409.988 357.083 404.92 250 404.92C142.918 404.92 56.1101 409.988 56.1101 416.24C56.1101 422.492 142.918 427.56 250 427.56Z" fill="#F5F5F5"/>
<path d="M387.63 416.49H187.69V366.35H387.63C388.659 366.35 389.646 366.759 390.373 367.486C391.101 368.214 391.51 369.201 391.51 370.23V412.61C391.51 413.639 391.101 414.626 390.373 415.354C389.646 416.081 388.659 416.49 387.63 416.49Z" fill="#0070CE"/>
<path opacity="0.2" d="M387.63 416.49H187.69V366.35H387.63C388.659 366.35 389.646 366.759 390.373 367.486C391.101 368.214 391.51 369.201 391.51 370.23V412.61C391.51 413.639 391.101 414.626 390.373 415.354C389.646 416.081 388.659 416.49 387.63 416.49Z" fill="black"/>
<path opacity="0.2" d="M236.71 416.49H267.3V366.35H236.71V416.49Z" fill="black"/>
<path opacity="0.2" d="M280.44 416.49H295.95V366.35H280.44V416.49Z" fill="black"/>
<path d="M121.46 366.35H187.68V416.49H121.46C120.425 416.49 119.433 416.079 118.702 415.348C117.971 414.616 117.56 413.624 117.56 412.59V370.25C117.56 369.216 117.971 368.224 118.702 367.492C119.433 366.761 120.425 366.35 121.46 366.35Z" fill="#0070CE"/>
<path opacity="0.9" d="M117.56 371.74H175.49C176.84 371.74 178.134 372.276 179.089 373.231C180.044 374.185 180.58 375.48 180.58 376.83V406C180.58 407.35 180.044 408.645 179.089 409.599C178.134 410.554 176.84 411.09 175.49 411.09H117.56V371.74Z" fill="white"/>
<path opacity="0.2" d="M363.49 405.76C371.41 405.76 377.83 399.34 377.83 391.42C377.83 383.5 371.41 377.08 363.49 377.08C355.57 377.08 349.15 383.5 349.15 391.42C349.15 399.34 355.57 405.76 363.49 405.76Z" fill="black"/>
<path d="M402.11 366.31H202.11V329.92H402.11C403.139 329.92 404.126 330.329 404.853 331.056C405.581 331.784 405.99 332.771 405.99 333.8V362.47C405.979 363.492 405.566 364.469 404.839 365.188C404.113 365.907 403.132 366.31 402.11 366.31Z" fill="#263238"/>
<path opacity="0.2" d="M402.11 366.31H202.11V329.92H402.11C403.139 329.92 404.126 330.329 404.853 331.056C405.581 331.784 405.99 332.771 405.99 333.8V362.47C405.979 363.492 405.566 364.469 404.839 365.188C404.113 365.907 403.132 366.31 402.11 366.31Z" fill="black"/>
<path d="M135.93 330H202.15V366.39H135.93C134.896 366.39 133.904 365.979 133.172 365.248C132.441 364.516 132.03 363.524 132.03 362.49V333.86C132.041 332.833 132.456 331.851 133.186 331.128C133.917 330.405 134.903 330 135.93 330Z" fill="#263238"/>
<path opacity="0.9" d="M132 335.35H190C191.35 335.35 192.645 335.886 193.599 336.841C194.554 337.795 195.09 339.09 195.09 340.44V355.89C195.093 356.56 194.963 357.224 194.708 357.844C194.454 358.464 194.079 359.027 193.606 359.502C193.133 359.977 192.571 360.354 191.952 360.611C191.334 360.868 190.67 361 190 361H132V335.35Z" fill="white"/>
<path opacity="0.3" d="M244.01 357.73H383.91C386.224 357.73 388.1 355.854 388.1 353.54V342.76C388.1 340.446 386.224 338.57 383.91 338.57H244.01C241.696 338.57 239.82 340.446 239.82 342.76V353.54C239.82 355.854 241.696 357.73 244.01 357.73Z" fill="#0070CE"/>
<path opacity="0.3" d="M209.74 366.35H215.05V329.96H209.74V366.35Z" fill="#0070CE"/>
<path opacity="0.3" d="M219.43 366.35H224.74V329.96H219.43V366.35Z" fill="#0070CE"/>
<path d="M379.97 329.96H180.04V292.38H379.97C380.999 292.38 381.986 292.789 382.714 293.516C383.441 294.244 383.85 295.231 383.85 296.26V326.08C383.85 327.109 383.441 328.096 382.714 328.824C381.986 329.551 380.999 329.96 379.97 329.96Z" fill="#0070CE"/>
<path opacity="0.3" d="M379.97 329.96H180.04V292.38H379.97C380.999 292.38 381.986 292.789 382.714 293.516C383.441 294.244 383.85 295.231 383.85 296.26V326.08C383.85 327.109 383.441 328.096 382.714 328.824C381.986 329.551 380.999 329.96 379.97 329.96Z" fill="black"/>
<path opacity="0.9" d="M229.06 329.96H298.48V292.42H229.06V329.96Z" fill="white"/>
<path opacity="0.9" d="M328.3 329.96H363.5V292.42H328.3V329.96Z" fill="white"/>
<path d="M113.82 292.42H180V330H113.82C113.308 330 112.801 329.899 112.327 329.703C111.854 329.507 111.424 329.22 111.062 328.858C110.7 328.496 110.413 328.066 110.217 327.592C110.021 327.119 109.92 326.612 109.92 326.1V296.32C109.92 295.808 110.021 295.301 110.217 294.828C110.413 294.354 110.7 293.924 111.062 293.562C111.424 293.2 111.854 292.913 112.327 292.717C112.801 292.521 113.308 292.42 113.82 292.42Z" fill="#0070CE"/>
<path opacity="0.9" d="M109.92 297.8H167.85C169.2 297.8 170.495 298.336 171.449 299.291C172.404 300.245 172.94 301.54 172.94 302.89V319.48C172.94 320.83 172.404 322.125 171.449 323.079C170.495 324.034 169.2 324.57 167.85 324.57H109.92V297.8Z" fill="white"/>
<path d="M394.43 292.42H194.5V267.52H394.43C395.459 267.52 396.446 267.929 397.174 268.656C397.901 269.384 398.31 270.371 398.31 271.4V288.54C398.31 289.569 397.901 290.556 397.174 291.284C396.446 292.011 395.459 292.42 394.43 292.42Z" fill="#0070CE"/>
<path opacity="0.3" d="M394.43 292.42H194.5V267.52H394.43C395.459 267.52 396.446 267.929 397.174 268.656C397.901 269.384 398.31 270.371 398.31 271.4V288.54C398.31 289.569 397.901 290.556 397.174 291.284C396.446 292.011 395.459 292.42 394.43 292.42Z" fill="white"/>
<path opacity="0.2" d="M394.43 292.42H194.5V267.52H394.43C395.459 267.52 396.446 267.929 397.174 268.656C397.901 269.384 398.31 270.371 398.31 271.4V288.54C398.31 289.569 397.901 290.556 397.174 291.284C396.446 292.011 395.459 292.42 394.43 292.42Z" fill="black"/>
<path d="M128.28 267.52H194.5V292.42H128.28C127.246 292.42 126.254 292.009 125.522 291.278C124.791 290.546 124.38 289.554 124.38 288.52V271.42C124.38 270.386 124.791 269.394 125.522 268.662C126.254 267.931 127.246 267.52 128.28 267.52Z" fill="#0070CE"/>
<path opacity="0.3" d="M128.28 267.52H194.5V292.42H128.28C127.246 292.42 126.254 292.009 125.522 291.278C124.791 290.546 124.38 289.554 124.38 288.52V271.42C124.38 270.386 124.791 269.394 125.522 268.662C126.254 267.931 127.246 267.52 128.28 267.52Z" fill="white"/>
<path opacity="0.9" d="M124.38 272.91H182.3C183.65 272.91 184.944 273.446 185.899 274.401C186.854 275.355 187.39 276.65 187.39 278V282C187.366 283.334 186.82 284.606 185.868 285.541C184.916 286.476 183.634 287 182.3 287H124.38V272.91Z" fill="white"/>
<path opacity="0.4" d="M212.39 285.86H303.01V274.09H212.39V285.86Z" fill="#263238"/>
<path d="M228.9 259.28H257.49V267.53H228.9C228.73 267.53 228.567 267.463 228.447 267.343C228.327 267.223 228.26 267.06 228.26 266.89V259.89C228.268 259.726 228.339 259.57 228.458 259.457C228.577 259.343 228.735 259.28 228.9 259.28Z" fill="#0070CE"/>
<path opacity="0.2" d="M228.9 259.28H257.49V267.53H228.9C228.73 267.53 228.567 267.463 228.447 267.343C228.327 267.223 228.26 267.06 228.26 266.89V259.89C228.268 259.726 228.339 259.57 228.458 259.457C228.577 259.343 228.735 259.28 228.9 259.28Z" fill="black"/>
<path d="M268.39 267.54H257.53V259.29H268.43C268.6 259.29 268.762 259.357 268.882 259.477C269.002 259.597 269.07 259.76 269.07 259.93V266.93C269.066 267.015 269.045 267.098 269.009 267.175C268.972 267.252 268.921 267.321 268.858 267.378C268.795 267.434 268.721 267.478 268.64 267.506C268.56 267.534 268.475 267.545 268.39 267.54Z" fill="#0070CE"/>
<path opacity="0.9" d="M269.04 266.65H259.51C259.287 266.65 259.074 266.562 258.916 266.404C258.759 266.246 258.67 266.033 258.67 265.81V261.01C258.67 260.787 258.759 260.574 258.916 260.416C259.074 260.259 259.287 260.17 259.51 260.17H269.04V266.65Z" fill="white"/>
<path d="M226.52 253.29H255.11V259.29H226.52C226.35 259.29 226.187 259.223 226.067 259.103C225.947 258.983 225.88 258.82 225.88 258.65V253.94C225.879 253.855 225.894 253.771 225.926 253.692C225.957 253.613 226.004 253.541 226.064 253.481C226.123 253.42 226.194 253.372 226.273 253.34C226.351 253.307 226.435 253.29 226.52 253.29Z" fill="#263238"/>
<path opacity="0.2" d="M226.52 253.29H255.11V259.29H226.52C226.35 259.29 226.187 259.223 226.067 259.103C225.947 258.983 225.88 258.82 225.88 258.65V253.94C225.879 253.855 225.894 253.771 225.926 253.692C225.957 253.613 226.004 253.541 226.064 253.481C226.123 253.42 226.194 253.372 226.273 253.34C226.351 253.307 226.435 253.29 226.52 253.29Z" fill="black"/>
<path d="M266.01 259.29H255.11V253.29H266.01C266.18 253.29 266.342 253.357 266.462 253.477C266.582 253.597 266.65 253.76 266.65 253.93V258.64C266.651 258.725 266.636 258.809 266.604 258.888C266.572 258.967 266.526 259.039 266.466 259.099C266.406 259.16 266.335 259.208 266.257 259.24C266.179 259.273 266.095 259.29 266.01 259.29Z" fill="#263238"/>
<path opacity="0.9" d="M266.66 258.4H257.13C257.02 258.4 256.91 258.378 256.808 258.336C256.707 258.294 256.614 258.232 256.536 258.154C256.458 258.076 256.396 257.983 256.354 257.881C256.312 257.78 256.29 257.67 256.29 257.56V255.02C256.29 254.797 256.378 254.584 256.536 254.426C256.693 254.268 256.907 254.18 257.13 254.18H266.66V258.4Z" fill="white"/>
<path d="M230.16 247.12H258.75V253.3H230.16C229.99 253.3 229.827 253.233 229.707 253.113C229.587 252.993 229.52 252.83 229.52 252.66V247.76C229.52 247.676 229.537 247.593 229.569 247.515C229.601 247.437 229.648 247.367 229.707 247.307C229.767 247.248 229.837 247.201 229.915 247.169C229.993 247.137 230.076 247.12 230.16 247.12Z" fill="#0070CE"/>
<path opacity="0.3" d="M230.16 247.12H258.75V253.3H230.16C229.99 253.3 229.827 253.233 229.707 253.113C229.587 252.993 229.52 252.83 229.52 252.66V247.76C229.52 247.676 229.537 247.593 229.569 247.515C229.601 247.437 229.648 247.367 229.707 247.307C229.767 247.248 229.837 247.201 229.915 247.169C229.993 247.137 230.076 247.12 230.16 247.12Z" fill="black"/>
<path d="M269.65 253.29H258.75V247.11H269.65C269.82 247.11 269.982 247.177 270.103 247.297C270.223 247.417 270.29 247.58 270.29 247.75V252.64C270.291 252.725 270.276 252.809 270.244 252.888C270.213 252.967 270.166 253.039 270.106 253.099C270.047 253.16 269.976 253.208 269.897 253.24C269.819 253.273 269.735 253.29 269.65 253.29Z" fill="#0070CE"/>
<path opacity="0.9" d="M270.29 252.41H260.76C260.537 252.41 260.323 252.322 260.166 252.164C260.008 252.006 259.92 251.793 259.92 251.57V248.84C259.92 248.617 260.008 248.404 260.166 248.246C260.323 248.089 260.537 248 260.76 248H270.29V252.41Z" fill="white"/>
<path d="M227.78 243H256.37V247.1H227.78C227.61 247.1 227.447 247.033 227.327 246.913C227.207 246.793 227.14 246.63 227.14 246.46V243.64C227.14 243.47 227.207 243.307 227.327 243.187C227.447 243.067 227.61 243 227.78 243Z" fill="#0070CE"/>
<path opacity="0.3" d="M227.78 243H256.37V247.1H227.78C227.61 247.1 227.447 247.033 227.327 246.913C227.207 246.793 227.14 246.63 227.14 246.46V243.64C227.14 243.47 227.207 243.307 227.327 243.187C227.447 243.067 227.61 243 227.78 243Z" fill="white"/>
<path opacity="0.2" d="M227.78 243H256.37V247.1H227.78C227.61 247.1 227.447 247.033 227.327 246.913C227.207 246.793 227.14 246.63 227.14 246.46V243.64C227.14 243.47 227.207 243.307 227.327 243.187C227.447 243.067 227.61 243 227.78 243Z" fill="black"/>
<path d="M267.28 247.14H256.38V243.04H267.28C267.45 243.04 267.612 243.107 267.732 243.227C267.852 243.347 267.92 243.51 267.92 243.68V246.49C267.921 246.575 267.906 246.659 267.874 246.738C267.842 246.817 267.796 246.889 267.736 246.949C267.676 247.01 267.605 247.058 267.527 247.09C267.449 247.123 267.365 247.14 267.28 247.14Z" fill="#0070CE"/>
<path opacity="0.3" d="M267.28 247.14H256.38V243.04H267.28C267.45 243.04 267.612 243.107 267.732 243.227C267.852 243.347 267.92 243.51 267.92 243.68V246.49C267.921 246.575 267.906 246.659 267.874 246.738C267.842 246.817 267.796 246.889 267.736 246.949C267.676 247.01 267.605 247.058 267.527 247.09C267.449 247.123 267.365 247.14 267.28 247.14Z" fill="white"/>
<path opacity="0.9" d="M267.91 246.23H258.38C258.157 246.23 257.943 246.141 257.786 245.984C257.628 245.826 257.54 245.613 257.54 245.39V244.74C257.54 244.517 257.628 244.304 257.786 244.146C257.943 243.988 258.157 243.9 258.38 243.9H267.91V246.22V246.23Z" fill="white"/>
<path d="M226.52 237H255.11V243H226.52C226.35 243 226.187 242.933 226.067 242.813C225.947 242.693 225.88 242.53 225.88 242.36V237.65C225.879 237.565 225.894 237.481 225.926 237.402C225.957 237.323 226.004 237.251 226.064 237.191C226.123 237.13 226.194 237.082 226.273 237.05C226.351 237.017 226.435 237 226.52 237Z" fill="#263238"/>
<path opacity="0.2" d="M226.52 237H255.11V243H226.52C226.35 243 226.187 242.933 226.067 242.813C225.947 242.693 225.88 242.53 225.88 242.36V237.65C225.879 237.565 225.894 237.481 225.926 237.402C225.957 237.323 226.004 237.251 226.064 237.191C226.123 237.13 226.194 237.082 226.273 237.05C226.351 237.017 226.435 237 226.52 237Z" fill="black"/>
<path d="M262.38 243.05H255.14V237.05H262.41C262.58 237.05 262.742 237.117 262.863 237.237C262.983 237.357 263.05 237.52 263.05 237.69V242.4C263.051 242.487 263.035 242.574 263.002 242.655C262.968 242.736 262.918 242.809 262.856 242.87C262.793 242.931 262.718 242.978 262.636 243.009C262.555 243.04 262.467 243.054 262.38 243.05Z" fill="#263238"/>
<path opacity="0.9" d="M263.03 242.13H257.13C256.907 242.13 256.694 242.042 256.536 241.884C256.379 241.726 256.29 241.513 256.29 241.29V238.75C256.29 238.527 256.379 238.314 256.536 238.156C256.694 237.999 256.907 237.91 257.13 237.91H263.03V242.13Z" fill="white"/>
<path d="M230.16 230.85H258.75V237H230.16C229.99 237 229.827 236.933 229.707 236.813C229.587 236.693 229.52 236.53 229.52 236.36V231.46C229.528 231.296 229.599 231.14 229.718 231.027C229.837 230.913 229.995 230.85 230.16 230.85Z" fill="#0070CE"/>
<path opacity="0.3" d="M230.16 230.85H258.75V237H230.16C229.99 237 229.827 236.933 229.707 236.813C229.587 236.693 229.52 236.53 229.52 236.36V231.46C229.528 231.296 229.599 231.14 229.718 231.027C229.837 230.913 229.995 230.85 230.16 230.85Z" fill="black"/>
<path d="M266.02 237.03H258.75V230.88H266.02C266.19 230.88 266.352 230.947 266.472 231.067C266.592 231.187 266.66 231.35 266.66 231.52V236.41C266.655 236.576 266.585 236.734 266.466 236.85C266.346 236.965 266.186 237.03 266.02 237.03Z" fill="#0070CE"/>
<path opacity="0.9" d="M266.66 236.14H260.76C260.537 236.14 260.323 236.052 260.166 235.894C260.008 235.736 259.92 235.523 259.92 235.3V232.57C259.92 232.347 260.008 232.134 260.166 231.976C260.323 231.818 260.537 231.73 260.76 231.73H266.66V236.14Z" fill="white"/>
<path d="M227.78 226.76H256.37V230.86H227.78C227.61 230.86 227.447 230.793 227.327 230.673C227.207 230.553 227.14 230.39 227.14 230.22V227.4C227.14 227.23 227.207 227.067 227.327 226.947C227.447 226.827 227.61 226.76 227.78 226.76Z" fill="#0070CE"/>
<path opacity="0.3" d="M227.78 226.76H256.37V230.86H227.78C227.61 230.86 227.447 230.793 227.327 230.673C227.207 230.553 227.14 230.39 227.14 230.22V227.4C227.14 227.23 227.207 227.067 227.327 226.947C227.447 226.827 227.61 226.76 227.78 226.76Z" fill="white"/>
<path opacity="0.2" d="M227.78 226.76H256.37V230.86H227.78C227.61 230.86 227.447 230.793 227.327 230.673C227.207 230.553 227.14 230.39 227.14 230.22V227.4C227.14 227.23 227.207 227.067 227.327 226.947C227.447 226.827 227.61 226.76 227.78 226.76Z" fill="black"/>
<path d="M263.65 230.85H256.38V226.75H263.65C263.82 226.75 263.983 226.817 264.103 226.937C264.223 227.057 264.29 227.22 264.29 227.39V230.21C264.29 230.38 264.223 230.543 264.103 230.663C263.983 230.783 263.82 230.85 263.65 230.85Z" fill="#0070CE"/>
<path opacity="0.3" d="M263.65 230.85H256.38V226.75H263.65C263.82 226.75 263.983 226.817 264.103 226.937C264.223 227.057 264.29 227.22 264.29 227.39V230.21C264.29 230.38 264.223 230.543 264.103 230.663C263.983 230.783 263.82 230.85 263.65 230.85Z" fill="white"/>
<path opacity="0.9" d="M264.28 229.97H258.38C258.157 229.97 257.944 229.881 257.786 229.724C257.629 229.566 257.54 229.353 257.54 229.13V228.48C257.54 228.257 257.629 228.044 257.786 227.886C257.944 227.729 258.157 227.64 258.38 227.64H264.28V229.96V229.97Z" fill="white"/>
<path d="M106.75 336.5L100.15 333.19L105.51 316.79L112.11 320.1L106.75 336.5Z" fill="#FFC3BD"/>
<path d="M100.73 330.61L108.83 332.31C108.968 332.335 109.092 332.412 109.174 332.526C109.256 332.64 109.29 332.781 109.27 332.92L108.27 339.41C108.198 339.745 107.997 340.037 107.71 340.224C107.424 340.411 107.075 340.478 106.74 340.41C103.93 339.77 102.61 339.32 99.0501 338.57C96.8601 338.11 89.2901 336.57 86.3701 335.57C83.4501 334.57 84.5201 331.7 85.8501 331.87C91.8501 332.61 96.9801 331.94 99.3501 330.77C99.7786 330.562 100.265 330.505 100.73 330.61Z" fill="#263238"/>
<path opacity="0.2" d="M112.11 320.11L105.51 316.8L102.44 326.21L109.35 328.56L112.11 320.11Z" fill="black"/>
<path d="M179 237.43C179 237.43 122.41 242.91 117.68 263.52C110.87 293.13 101.68 321.27 101.68 321.27L114.34 323.5C116.28 315.07 130.71 285.5 137.48 265.57C152.81 263.28 193.79 271.98 199.93 260.32C202.975 254.398 204.647 247.867 204.82 241.21L179 237.43Z" fill="#0070CE"/>
<path opacity="0.3" d="M179 237.43C179 237.43 122.41 242.91 117.68 263.52C110.87 293.13 101.68 321.27 101.68 321.27L114.34 323.5C116.28 315.07 130.71 285.5 137.48 265.57C152.81 263.28 193.79 271.98 199.93 260.32C202.975 254.398 204.647 247.867 204.82 241.21L179 237.43Z" fill="black"/>
<path d="M115.09 327.98L100.29 322.62L101 316.67L116.49 320.75L115.09 327.98Z" fill="#0070CE"/>
<path d="M97.9101 331.33C98.5691 331.454 99.2403 331.501 99.9101 331.47C99.9434 331.47 99.976 331.46 100.004 331.443C100.033 331.425 100.055 331.4 100.07 331.37C100.085 331.342 100.093 331.311 100.093 331.28C100.093 331.249 100.085 331.218 100.07 331.19C99.8701 330.98 98.0701 329.19 97.1701 329.31C97.06 329.33 96.9566 329.377 96.8693 329.446C96.7819 329.516 96.7135 329.607 96.6701 329.71C96.576 329.86 96.5261 330.033 96.5261 330.21C96.5261 330.387 96.576 330.56 96.6701 330.71C96.9963 331.058 97.4361 331.278 97.9101 331.33ZM99.4701 331.13C98.1301 331.13 97.1901 330.88 96.9201 330.47C96.8637 330.376 96.8338 330.269 96.8338 330.16C96.8338 330.051 96.8637 329.944 96.9201 329.85C96.9361 329.799 96.9661 329.753 97.0067 329.717C97.0474 329.682 97.097 329.659 97.1501 329.65C97.6801 329.56 98.7501 330.42 99.4701 331.13Z" fill="#0070CE"/>
<path d="M99.8502 331.47H99.9302C99.9571 331.461 99.9813 331.445 100 331.424C100.02 331.403 100.033 331.378 100.04 331.35C100.04 331.27 100.67 329.22 100.04 328.35C99.9663 328.238 99.8671 328.146 99.7507 328.08C99.6343 328.014 99.5039 327.976 99.3702 327.97C99.2262 327.942 99.0772 327.965 98.9479 328.034C98.8187 328.103 98.7171 328.215 98.6602 328.35C98.3302 329.1 99.0902 330.83 99.7102 331.41L99.8502 331.47ZM99.4702 328.34C99.5371 328.353 99.6008 328.379 99.6574 328.417C99.7141 328.454 99.7627 328.503 99.8002 328.56C100.056 329.336 100.056 330.174 99.8002 330.95C99.2261 330.268 98.9393 329.389 99.0002 328.5C99.0002 328.41 99.1202 328.31 99.3702 328.33L99.4702 328.34Z" fill="#0070CE"/>
<path d="M185.1 185.62C184.76 189.34 184.22 192.84 183.64 196.43C183.06 200.02 182.3 203.56 181.37 207.13C180.463 210.789 179.287 214.375 177.85 217.86C177.075 219.762 176.135 221.592 175.04 223.33C174.421 224.321 173.715 225.254 172.93 226.12C171.986 227.183 170.883 228.094 169.66 228.82L169.24 229.06L169.01 229.14C166.839 229.884 164.495 229.96 162.28 229.36C160.636 228.938 159.05 228.313 157.56 227.5C156.213 226.764 154.923 225.928 153.7 225C153.1 224.55 152.54 224.06 151.98 223.57C151.4 223.079 150.846 222.559 150.32 222.01L153.46 217.46C154.63 217.84 155.89 218.33 157.1 218.69C158.31 219.05 159.51 219.44 160.66 219.69C161.688 219.947 162.741 220.095 163.8 220.13C164.69 220.13 165.32 219.89 165.16 219.82L164.51 220.14C165.184 219.501 165.742 218.75 166.16 217.92C166.856 216.633 167.454 215.296 167.95 213.92C169.028 210.843 169.92 207.704 170.62 204.52C171.35 201.25 171.98 197.92 172.53 194.52C173.08 191.12 173.53 187.72 173.99 184.46L185.1 185.62Z" fill="#FFC3BD"/>
<path d="M175.22 180.14C168.34 186.14 168.72 200.74 168.72 200.74L186.9 207.3C190.75 201.3 192.64 189.84 192.3 184.92C191.77 177.36 183.38 173 175.22 180.14Z" fill="#263238"/>
<path opacity="0.2" d="M192.31 185.2C189.04 183.63 184.57 184.13 180.15 187.99C176.15 191.48 174.6 197.91 174.02 202.66L186.9 207.3C190.68 201.4 192.57 190.25 192.31 185.2Z" fill="black"/>
<path d="M80.6702 319.02L78.4702 311.98L93.7702 303.68L95.9602 310.72L80.6702 319.02Z" fill="#FFC3BD"/>
<path d="M79.0001 311.32L84.5401 317.47C84.5891 317.518 84.628 317.576 84.6545 317.64C84.6811 317.703 84.6947 317.771 84.6947 317.84C84.6947 317.909 84.6811 317.977 84.6545 318.041C84.628 318.104 84.5891 318.162 84.5401 318.21L79.9401 322.9C79.8142 323.016 79.6666 323.106 79.5059 323.164C79.3452 323.223 79.1744 323.249 79.0035 323.242C78.8325 323.235 78.6648 323.193 78.5097 323.121C78.3547 323.049 78.2155 322.946 78.1001 322.82C76.2101 320.65 75.4101 319.51 72.9701 316.82C71.4701 315.16 66.2001 309.67 64.1301 307.37C62.0601 305.07 64.3901 303.09 65.4701 303.88C70.3301 307.41 75.2001 310.24 77.8101 310.69C78.2642 310.766 78.6816 310.987 79.0001 311.32Z" fill="#263238"/>
<path opacity="0.2" d="M95.9601 310.72L93.7701 303.68L82.6101 309.74L87.2601 315.45L95.9601 310.72Z" fill="black"/>
<path d="M191.8 239.5C191.8 239.5 153 244.7 145 255.32C131.07 273.81 87 304.32 87 304.32L91 317.21C91 317.21 151.06 291.88 161.74 270.7C181.36 269.19 213.28 275.65 218.31 263.47C221.66 255.36 220.02 243.25 220.02 243.25L191.8 239.5Z" fill="#0070CE"/>
<path opacity="0.2" d="M191.8 239.5C191.8 239.5 153 244.7 145 255.32C131.07 273.81 87 304.32 87 304.32L91 317.21C91 317.21 151.06 291.88 161.74 270.7C181.36 269.19 213.28 275.65 218.31 263.47C221.66 255.36 220.02 243.25 220.02 243.25L191.8 239.5Z" fill="black"/>
<path d="M91.78 319.08L83.24 305.31L88.7 300.82L96.92 315.64L91.78 319.08Z" fill="#0070CE"/>
<path d="M76.2401 310.24C76.6967 310.719 77.2029 311.148 77.7501 311.52C77.7782 311.539 77.8113 311.549 77.8451 311.549C77.879 311.549 77.912 311.539 77.9401 311.52C77.9697 311.504 77.9933 311.479 78.0077 311.448C78.0221 311.417 78.0264 311.383 78.0201 311.35C78.0201 311.07 77.6501 308.56 76.7801 308.13C76.6837 308.077 76.5753 308.049 76.4651 308.049C76.3549 308.049 76.2465 308.077 76.1501 308.13C76.0007 308.204 75.8721 308.314 75.776 308.45C75.68 308.586 75.6195 308.744 75.6001 308.91C75.6361 309.419 75.865 309.894 76.2401 310.24ZM77.6201 311.01C76.5401 310.2 75.9201 309.46 75.9501 309.01C75.9623 308.901 76.0029 308.798 76.0679 308.71C76.1328 308.622 76.2198 308.553 76.3201 308.51C76.3672 308.483 76.4207 308.468 76.4751 308.468C76.5295 308.468 76.583 308.483 76.6301 308.51C77.0901 308.68 77.4501 310 77.6201 311V311.01Z" fill="#0070CE"/>
<path d="M77.7201 311.5H77.7901C77.8129 311.518 77.8411 311.528 77.8701 311.528C77.8991 311.528 77.9272 311.518 77.9501 311.5C78.0301 311.5 79.7101 310.15 79.7501 309.12C79.7531 308.986 79.727 308.853 79.6734 308.731C79.6199 308.608 79.5403 308.499 79.4401 308.41C79.3352 308.306 79.1995 308.24 79.0534 308.22C78.9073 308.2 78.7588 308.228 78.6301 308.3C77.9201 308.71 77.5201 310.56 77.6801 311.4C77.684 311.436 77.6978 311.471 77.7201 311.5ZM79.2701 308.75C79.3151 308.8 79.3497 308.858 79.3721 308.922C79.3944 308.985 79.4039 309.053 79.4001 309.12C79.4001 309.74 78.5201 310.6 77.9901 311.05C77.9403 310.166 78.2301 309.297 78.8001 308.62C78.8661 308.583 78.9428 308.57 79.0175 308.582C79.0921 308.595 79.1601 308.633 79.2101 308.69L79.2701 308.75Z" fill="#0070CE"/>
<path d="M155.39 218.84L149.51 213.16L145.43 221.16C145.43 221.16 152.57 225.07 154.36 223.28L155.39 218.84Z" fill="#FFC3BD"/>
<path d="M141.7 213.1L140.64 219.66L145.43 221.11L149.51 213.16L141.7 213.1Z" fill="#FFC3BD"/>
<path d="M219.62 175.2C218.88 173.25 217.56 171.32 215.47 171.35C215.04 171.35 212.47 171.35 212.01 171.41C209.61 171.47 206.61 171.63 203.71 172C198.156 172.639 192.644 173.598 187.2 174.87C184.7 175.55 182.3 176.4 180.38 177.13H180.31C179.219 177.556 178.298 178.327 177.686 179.325C177.074 180.324 176.805 181.495 176.92 182.66C177.92 193.23 180.4 222.58 178.92 237.78L219.92 243.18C222.38 235.36 223.36 217.45 223.38 202.85C223.46 194.08 222.67 183.17 219.62 175.2Z" fill="#263238"/>
<path opacity="0.2" d="M223.24 195.34L222.43 195.4L217.23 199.9L211.85 218.43L193.37 221.66C197.86 223.93 210.92 224.39 218.64 222.34C219.905 221.993 221.026 221.251 221.839 220.222C222.652 219.193 223.115 217.931 223.16 216.62C223.35 211.99 223.44 207.29 223.44 202.88C223.44 200.49 223.39 197.94 223.24 195.34Z" fill="black"/>
<path d="M156.89 201.39C156.89 201.39 160.5 199.39 167.27 201.33C171.04 202.529 175.105 202.413 178.8 201L181.33 205.74L158.33 206.54L156.89 201.39Z" fill="#0070CE"/>
<path opacity="0.8" d="M156.89 201.39C156.89 201.39 160.5 199.39 167.27 201.33C171.04 202.529 175.105 202.413 178.8 201L181.33 205.74L158.33 206.54L156.89 201.39Z" fill="white"/>
<path d="M156.89 201.39C156.89 201.39 156.74 199.94 152.37 199.79C143.58 199.5 139.87 197.25 139.87 197.25L139.51 199.52L158.32 206.52L156.89 201.39Z" fill="#0070CE"/>
<path opacity="0.8" d="M156.89 201.39C156.89 201.39 156.74 199.94 152.37 199.79C143.58 199.5 139.87 197.25 139.87 197.25L139.51 199.52L158.32 206.52L156.89 201.39Z" fill="white"/>
<path d="M164.28 235.13L148 230.49C147.797 230.426 147.612 230.313 147.462 230.162C147.313 230.01 147.202 229.824 147.14 229.62L138.81 199.46C138.764 199.321 138.757 199.171 138.79 199.028C138.824 198.885 138.897 198.754 139.001 198.65C139.105 198.547 139.235 198.474 139.378 198.44C139.521 198.406 139.671 198.413 139.81 198.46L155.32 202.89L164.28 235.13Z" fill="#0070CE"/>
<path d="M189.61 236.54L168.21 235.35L159.3 203.09L181 204.3C181.245 204.321 181.478 204.417 181.668 204.574C181.857 204.732 181.994 204.943 182.06 205.18L190.44 235.5C190.489 235.626 190.504 235.762 190.483 235.895C190.463 236.028 190.408 236.153 190.324 236.258C190.24 236.364 190.13 236.445 190.005 236.495C189.879 236.544 189.743 236.56 189.61 236.54Z" fill="#0070CE"/>
<path d="M164.28 235.13L168.21 235.35L159.3 203.09L155.37 202.87L164.28 235.13Z" fill="#0070CE"/>
<path opacity="0.3" d="M164.28 235.13L168.21 235.35L159.3 203.09L155.37 202.87L164.28 235.13Z" fill="black"/>
<path d="M221.63 182.53C221.84 183.97 221.98 185.19 222.08 186.53C222.18 187.87 222.25 189.11 222.31 190.41C222.4 192.99 222.38 195.58 222.22 198.18C221.965 203.516 220.993 208.793 219.33 213.87C219.33 213.96 219.15 214.39 219.03 214.71C218.889 215.031 218.733 215.345 218.56 215.65C218.241 216.21 217.865 216.736 217.44 217.22C216.725 218.024 215.892 218.715 214.97 219.27C213.552 220.115 212.024 220.761 210.43 221.19C207.775 221.89 205.053 222.302 202.31 222.42C197.201 222.66 192.081 222.375 187.03 221.57L187.29 216.04C191.987 215.61 196.66 214.943 201.29 214.04C203.407 213.641 205.482 213.049 207.49 212.27C208.235 211.988 208.935 211.6 209.57 211.12C209.78 210.94 209.88 210.79 209.86 210.77C209.84 210.75 209.81 210.77 209.78 210.84C209.751 210.875 209.724 210.912 209.7 210.95C209.64 211.13 209.7 210.95 209.7 210.95C210.19 208.823 210.557 206.669 210.8 204.5C211.01 202.28 211.16 200.03 211.19 197.75C211.22 195.47 211.19 193.17 211.09 190.87C211.04 189.72 210.98 188.57 210.89 187.43L210.75 185.72L210.6 184.12L221.63 182.53Z" fill="#FFC3BD"/>
<path d="M221.63 173.69C216.77 169.98 210.06 170.09 207.31 179.86C205.51 186.26 206.47 199.14 206.47 199.14L225.88 198.75C228.05 188.51 226.55 177.45 221.63 173.69Z" fill="#263238"/>
<path d="M201.8 155.68L197.72 160.47L192.16 167C192.508 167.833 192.799 168.688 193.03 169.56C194.03 173.02 190.88 173.72 188.03 175.47C188.03 175.47 183.76 181.12 194.03 179.47C204.3 177.82 205.76 172.47 205.76 172.47C201.15 169.34 201.48 161.66 201.8 155.68Z" fill="#FFC3BD"/>
<path d="M197.12 178.8C196.086 179.096 195.033 179.326 193.97 179.49C192.599 179.742 191.202 179.826 189.81 179.74L189.57 180.93C189.2 181.19 189.11 182.58 191.45 184.23C193.92 183.72 197.75 181.61 197.12 178.8Z" fill="#0070CE"/>
<path d="M203.94 170.75C203.94 170.75 202 175.94 194.94 177.84C195.94 180.59 194.3 183.72 194.3 183.72C194.3 183.72 204.15 180.35 206.2 176.98C208.25 173.61 207.37 171.64 207.37 171.64C206.302 171.106 205.133 170.803 203.94 170.75Z" fill="#263238"/>
<path d="M190 183.49C190 183.49 190.07 179.19 191.33 177.75C190.67 175.81 191.02 174.75 192.04 173.06C189.89 173.485 187.987 174.724 186.73 176.52C185.38 178.77 186.32 183.55 190 183.49Z" fill="#263238"/>
<path opacity="0.2" d="M192.16 167C192.508 167.833 192.799 168.688 193.03 169.56C195.37 168.65 198.16 165.5 198.03 162.96C198.005 162.12 197.887 161.285 197.68 160.47L192.16 167Z" fill="black"/>
<path d="M178.61 144.2C176.68 148.25 178.34 157.87 187.49 154.04C196.64 150.21 181.75 137.63 178.61 144.2Z" fill="#263238"/>
<path d="M198.69 152.61C197.85 154.36 198.57 158.52 202.52 156.87C206.47 155.22 200 149.77 198.69 152.61Z" fill="#263238"/>
<path d="M199.8 155.41C198.52 156.87 198.09 161.07 202.35 160.54C206.61 160.01 201.87 153 199.8 155.41Z" fill="#263238"/>
<path d="M200.8 144.49C202.46 152.24 203.8 156.67 201.11 161.78C200.248 163.449 198.946 164.85 197.345 165.833C195.744 166.815 193.905 167.341 192.026 167.353C190.148 167.366 188.302 166.864 186.688 165.903C185.074 164.942 183.754 163.557 182.87 161.9C179.35 155.58 177.22 143.97 183.74 138.61C185.122 137.414 186.794 136.603 188.588 136.256C190.382 135.91 192.236 136.041 193.964 136.636C195.691 137.232 197.232 138.271 198.432 139.649C199.632 141.027 200.448 142.697 200.8 144.49Z" fill="#FFC3BD"/>
<path d="M199.42 135.48C197.84 128.6 188.62 130.99 183.92 135.15C179.22 139.31 178.01 142.58 174.05 145.04C181.36 146.04 191.71 143.14 193.65 140.68C193.645 141.899 193.929 143.101 194.478 144.189C195.028 145.278 195.827 146.22 196.81 146.94C196.673 149.094 196.673 151.256 196.81 153.41L200.15 151.71L204.04 150.15C209.78 140.45 206.39 134.46 199.42 135.48Z" fill="#263238"/>
<path d="M191.09 149.82C191.028 149.821 190.967 149.799 190.919 149.758C190.871 149.718 190.84 149.662 190.83 149.6C190.823 149.566 190.823 149.53 190.829 149.496C190.836 149.462 190.85 149.429 190.869 149.4C190.889 149.371 190.914 149.347 190.943 149.328C190.973 149.309 191.006 149.296 191.04 149.29L201.88 147.44C201.95 147.428 202.022 147.445 202.08 147.486C202.138 147.527 202.178 147.59 202.19 147.66C202.196 147.694 202.195 147.729 202.187 147.763C202.178 147.797 202.164 147.828 202.143 147.856C202.123 147.884 202.097 147.908 202.067 147.926C202.037 147.943 202.004 147.955 201.97 147.96L191.13 149.81L191.09 149.82Z" fill="white"/>
<path d="M189.64 156.25C187.64 156.25 185.44 154.1 184.73 151.49C184.502 150.85 184.424 150.167 184.502 149.493C184.58 148.818 184.812 148.171 185.18 147.6C185.408 147.284 185.709 147.028 186.057 146.854C186.405 146.68 186.791 146.593 187.18 146.6C189.18 146.6 191.39 148.75 192.1 151.36C192.324 152.002 192.399 152.687 192.319 153.363C192.239 154.039 192.007 154.687 191.64 155.26C191.412 155.575 191.111 155.829 190.762 156.002C190.414 156.174 190.029 156.259 189.64 156.25ZM187.13 147.17C186.831 147.164 186.535 147.229 186.265 147.359C185.996 147.49 185.761 147.682 185.58 147.92C185.268 148.429 185.074 149.001 185.011 149.594C184.949 150.188 185.021 150.788 185.22 151.35C185.87 153.75 187.85 155.71 189.63 155.72C189.932 155.736 190.234 155.676 190.506 155.545C190.779 155.414 191.014 155.216 191.19 154.97C191.504 154.462 191.7 153.89 191.764 153.297C191.828 152.703 191.758 152.103 191.56 151.54C190.91 149.14 188.93 147.18 187.15 147.17H187.13Z" fill="white"/>
<path d="M183.45 153C183.404 153.01 183.356 153.01 183.31 153C183.279 152.983 183.252 152.959 183.23 152.93C183.209 152.902 183.193 152.869 183.185 152.835C183.176 152.8 183.175 152.764 183.181 152.729C183.187 152.693 183.201 152.66 183.22 152.63C183.451 152.332 183.761 152.106 184.115 151.977C184.469 151.848 184.852 151.821 185.22 151.9C185.287 151.919 185.345 151.962 185.382 152.021C185.419 152.08 185.433 152.151 185.42 152.22C185.404 152.289 185.361 152.348 185.301 152.385C185.241 152.423 185.169 152.435 185.1 152.42C185.1 152.42 184.1 152.2 183.63 152.91C183.608 152.937 183.581 152.958 183.55 152.974C183.519 152.989 183.485 152.998 183.45 153Z" fill="white"/>
<path d="M205.45 150.42C204.987 152.402 203.817 154.148 202.16 155.33C199.99 156.81 198.29 154.97 198.38 152.39C198.46 150.07 199.68 146.51 202.11 146.06C204.54 145.61 206 148 205.45 150.42Z" fill="#FFC3BD"/>
<path d="M188.44 151C188.73 151.57 188.66 152.2 188.29 152.4C187.92 152.6 187.39 152.3 187.1 151.72C186.81 151.14 186.89 150.52 187.25 150.32C187.61 150.12 188.15 150.42 188.44 151Z" fill="#263238"/>
<path d="M182.1 153.6C182.36 154.19 182.26 154.81 181.88 154.99C181.5 155.17 180.98 154.84 180.73 154.25C180.48 153.66 180.58 153.03 180.96 152.86C181.34 152.69 181.85 153 182.1 153.6Z" fill="#263238"/>
<path d="M178.9 150.07C178.961 150.053 179.016 150.021 179.062 149.978C179.107 149.934 179.141 149.88 179.16 149.82C179.302 149.366 179.545 148.951 179.871 148.604C180.196 148.258 180.596 147.99 181.04 147.82C181.135 147.79 181.214 147.724 181.261 147.636C181.308 147.548 181.318 147.445 181.29 147.35C181.278 147.303 181.255 147.258 181.225 147.22C181.195 147.181 181.157 147.149 181.114 147.126C181.071 147.102 181.024 147.088 180.975 147.084C180.926 147.079 180.877 147.085 180.83 147.1C180.26 147.305 179.746 147.642 179.331 148.084C178.916 148.525 178.61 149.058 178.44 149.64C178.423 149.687 178.416 149.736 178.419 149.785C178.422 149.835 178.435 149.883 178.458 149.927C178.48 149.971 178.512 150.01 178.55 150.042C178.588 150.073 178.632 150.097 178.68 150.11C178.756 150.122 178.833 150.108 178.9 150.07Z" fill="#263238"/>
<path d="M181.93 158.31C180.11 158.31 178.1 156.31 177.45 153.97C177.245 153.384 177.176 152.758 177.248 152.141C177.321 151.524 177.534 150.932 177.87 150.41C178.08 150.133 178.352 149.909 178.665 149.758C178.978 149.606 179.323 149.532 179.67 149.54C181.5 149.54 183.51 151.54 184.16 153.88C184.364 154.465 184.432 155.088 184.36 155.703C184.287 156.319 184.075 156.909 183.74 157.43C183.531 157.711 183.257 157.937 182.942 158.09C182.627 158.243 182.28 158.319 181.93 158.31ZM179.65 150.06C179.383 150.054 179.117 150.113 178.877 150.232C178.637 150.35 178.429 150.524 178.27 150.74C177.985 151.197 177.807 151.712 177.75 152.247C177.693 152.782 177.758 153.324 177.94 153.83C178.53 156 180.31 157.77 181.94 157.78C182.208 157.787 182.474 157.729 182.716 157.613C182.958 157.496 183.168 157.324 183.33 157.11C183.613 156.652 183.789 156.137 183.846 155.602C183.903 155.068 183.84 154.527 183.66 154.02C183.07 151.85 181.28 150.08 179.66 150.02L179.65 150.06Z" fill="white"/>
<path d="M184.2 152.68C184.147 154.498 183.851 156.301 183.32 158.04C183.763 158.154 184.225 158.169 184.675 158.084C185.124 158 185.549 157.817 185.92 157.55L184.2 152.68Z" fill="#ED847E"/>
<path d="M187.22 159.85C187.938 159.648 188.607 159.303 189.188 158.835C189.769 158.368 190.249 157.788 190.6 157.13C190.61 157.107 190.615 157.082 190.616 157.057C190.616 157.032 190.611 157.007 190.602 156.984C190.593 156.961 190.579 156.94 190.562 156.922C190.544 156.904 190.523 156.89 190.5 156.88C190.455 156.862 190.404 156.861 190.358 156.877C190.312 156.894 190.274 156.927 190.25 156.97C189.862 157.68 189.315 158.291 188.653 158.756C187.991 159.221 187.23 159.527 186.43 159.65C186.381 159.66 186.337 159.688 186.307 159.729C186.277 159.769 186.264 159.82 186.27 159.87C186.28 159.919 186.308 159.962 186.35 159.99C186.391 160.018 186.441 160.029 186.49 160.02C186.737 159.981 186.981 159.924 187.22 159.85Z" fill="#263238"/>
<path d="M189.36 146.32C189.415 146.29 189.46 146.245 189.49 146.19C189.541 146.104 189.557 146.001 189.532 145.903C189.508 145.806 189.446 145.722 189.36 145.67C188.853 145.36 188.279 145.179 187.686 145.143C187.093 145.106 186.501 145.215 185.96 145.46C185.915 145.482 185.875 145.513 185.843 145.551C185.811 145.589 185.786 145.633 185.771 145.681C185.756 145.728 185.751 145.779 185.756 145.828C185.761 145.878 185.776 145.926 185.8 145.97C185.847 146.058 185.927 146.125 186.022 146.155C186.118 146.185 186.221 146.176 186.31 146.13C186.737 145.943 187.203 145.863 187.668 145.896C188.133 145.929 188.584 146.075 188.98 146.32C189.037 146.357 189.103 146.376 189.17 146.376C189.237 146.376 189.303 146.357 189.36 146.32Z" fill="#263238"/>
<path d="M189.27 216.35L183 213.69L183.21 221.69C183.21 221.69 189.42 224.2 190.45 220.89L189.27 216.35Z" fill="#FFC3BD"/>
<path d="M175.21 215.48L176.59 221.17L183.22 221.66L183.01 213.69L175.21 215.48Z" fill="#FFC3BD"/>
</svg>
