<svg width="541" height="541" viewBox="0 0 541 541" fill="none" xmlns="http://www.w3.org/2000/svg">
<path d="M216.735 44.2971L233.712 140.173C233.826 140.854 233.801 141.551 233.638 142.222C233.474 142.893 233.176 143.523 232.761 144.075C232.346 144.627 231.822 145.088 231.223 145.431C230.624 145.774 229.961 145.991 229.275 146.07L156.781 155.245L140.194 57.703L209.832 39.8609C210.578 39.6686 211.356 39.6325 212.116 39.7549C212.877 39.8772 213.604 40.1554 214.252 40.5719C214.9 40.9883 215.455 41.5342 215.882 42.1752C216.31 42.8162 216.6 43.5386 216.735 44.2971Z" fill="#006FCC"/>
<path d="M229.632 146.243H229.286L156.662 155.429V155.267L139.989 57.5732L209.789 39.6877C210.559 39.4909 211.361 39.4551 212.146 39.5826C212.931 39.7101 213.681 39.9982 214.349 40.4288C215.017 40.8594 215.589 41.4233 216.03 42.0852C216.47 42.7471 216.769 43.4927 216.908 44.2754L233.885 140.141C234.127 141.513 233.816 142.926 233.019 144.07C232.222 145.214 231.004 145.995 229.632 146.243Z" fill="#E0E0E0"/>
<path d="M207.333 40.0123L214.366 41.1701L231.786 139.546L232.154 141.58L225.002 142.835L207.333 40.0123Z" fill="#EBEBEB"/>
<path d="M139.87 57.5516C139.87 57.5516 163.674 43.1502 207.203 39.6445L224.98 142.986L156.122 153.644L139.87 57.5516Z" fill="white"/>
<path d="M139.87 57.5516C139.87 57.5516 139.87 57.703 139.946 58.006C140.022 58.309 140.076 58.7526 140.184 59.3477C140.379 60.5271 140.682 62.2799 141.071 64.5629L144.425 84.2553C147.293 101.156 151.372 125.177 156.208 153.633L156.111 153.568L224.969 142.889L224.894 142.997C224.677 141.774 224.45 140.454 224.223 139.134C217.807 101.784 211.877 67.2787 207.138 39.6553L207.214 39.7202C197.587 40.4804 188.022 41.8866 178.584 43.9292C171.381 45.4887 164.28 47.4906 157.323 49.9235C152.876 51.4676 148.516 53.2519 144.263 55.2685L142.348 56.2207L140.974 56.9348L139.892 57.5516L140.162 57.3784L140.985 56.9132L142.359 56.1882L144.274 55.2253C148.517 53.1842 152.87 51.3781 157.312 49.8153C164.254 47.3793 171.341 45.3738 178.53 43.8102C187.971 41.7549 197.539 40.3379 207.171 39.5687H207.235V39.6336C212.072 67.2463 217.969 101.708 224.407 139.102C224.634 140.422 224.861 141.742 225.067 142.965V143.062H224.969L156.111 153.72H156.035V153.644C151.231 125.155 147.174 101.124 144.328 84.212C142.9 75.7616 141.785 69.064 141.017 64.5196C140.638 62.2474 140.346 60.4946 140.141 59.3152C140.054 58.7309 139.978 58.2332 139.924 57.9735L139.87 57.5516Z" fill="#E0E0E0"/>
<path d="M142.824 56.7401C144.371 64.0544 149.229 90.7149 149.229 90.7149L152.053 84.396L156.803 88.4643L149.5 51.4599L144.144 54.1C143.664 54.3333 143.274 54.7185 143.036 55.1959C142.797 55.6733 142.723 56.2161 142.824 56.7401Z" fill="#E0E0E0"/>
<path d="M227.101 142.478C227.101 142.478 227.101 142.391 227.101 142.218L226.949 141.439C226.83 140.757 226.646 139.762 226.419 138.474C225.954 135.888 225.337 132.155 224.482 127.546C222.881 118.306 220.728 105.538 218.38 91.429C216.032 77.3197 213.879 64.5521 212.332 55.3118L210.406 44.362C210.189 43.0744 210.016 42.0682 209.908 41.3865C209.843 41.0511 209.811 40.7914 209.778 40.6075C209.746 40.4235 209.778 40.3478 209.778 40.3478L209.843 40.6075C209.843 40.7806 209.919 41.0403 209.984 41.3757C210.103 42.0573 210.287 43.0636 210.525 44.3404C210.979 46.9372 211.607 50.6701 212.451 55.2794C214.052 64.5088 216.205 77.2764 218.553 91.3965C220.901 105.517 223.054 118.263 224.601 127.514L226.43 138.496C226.646 139.784 226.82 140.779 226.939 141.471C226.939 141.807 227.036 142.067 227.068 142.24L227.101 142.478Z" fill="#E0E0E0"/>
<path d="M228.984 142.142C228.984 142.142 224.948 119.42 220.079 91.4398C215.21 63.4593 211.304 40.7157 211.347 40.7048C211.39 40.694 215.383 63.4268 220.252 91.4074C225.121 119.388 229.027 142.132 228.984 142.142Z" fill="#E0E0E0"/>
<path d="M60.8514 69.248L78.4339 168.489C78.5297 168.929 78.7138 169.344 78.9751 169.711C79.2364 170.077 79.5694 170.386 79.9539 170.62C80.3384 170.854 80.7664 171.007 81.2119 171.07C81.6574 171.134 82.1111 171.106 82.5455 170.988L156.803 155.343C158.588 154.932 156.857 151.859 156.565 150.192L120.102 61.3818C119.934 60.5499 119.447 59.8167 118.745 59.3394C118.043 58.8621 117.183 58.6786 116.347 58.8283L63.8377 65.4393C63.3861 65.4799 62.9476 65.6126 62.5492 65.8291C62.1508 66.0456 61.801 66.3413 61.5212 66.6981C61.2414 67.0549 61.0377 67.4652 60.9225 67.9037C60.8073 68.3423 60.7831 68.7997 60.8514 69.248Z" fill="#E0E0E0"/>
<path d="M71.4336 64.0219L90.7257 168.067L156.555 153.785L140.195 57.703L71.4336 64.0219Z" fill="#EBEBEB"/>
<path d="M77.1138 61.2736C77.1138 61.2736 115.893 46.7532 140.108 58.4604L156.468 154.542L95.8107 166.834L77.1138 61.2736Z" fill="white"/>
<path d="M77.2004 60.5162C77.3302 61.2736 84.9908 104.316 95.9839 166.055L95.8865 165.99L153.027 154.401L156.533 153.698L156.468 153.795C150.279 117.44 144.566 84.0497 140.119 57.7139C139.037 57.227 137.955 56.6319 136.754 56.3073L135.91 55.9935C135.634 55.8835 135.352 55.7896 135.066 55.7122L133.378 55.2036C131.172 54.5897 128.927 54.1234 126.659 53.8078C124.495 53.4724 122.331 53.3318 120.167 53.2127C119.085 53.2127 118.078 53.1478 117.061 53.1478H115.546C115.049 53.1478 114.551 53.1478 114.053 53.1478C110.382 53.2769 106.72 53.5984 103.082 54.1108C99.7276 54.5869 96.6764 55.1928 93.9389 55.7338C88.464 56.9024 84.2659 58.1142 81.431 58.9798C80.0136 59.4234 78.9316 59.7697 78.185 60.0618L77.103 60.4405L78.185 60.0402C78.91 59.7913 79.9811 59.4234 81.431 58.9582C84.255 58.0709 88.4532 56.8483 93.9281 55.7122C96.7305 55.182 99.7817 54.5977 103.147 54.1C106.788 53.5847 110.454 53.2561 114.129 53.1154C114.612 53.1154 115.11 53.1154 115.622 53.1154H117.137C118.154 53.1154 119.193 53.1154 120.242 53.1803C122.406 53.2993 124.57 53.44 126.734 53.7754C129.006 54.0834 131.254 54.5425 133.464 55.1495L135.163 55.6689C135.45 55.7447 135.732 55.8387 136.007 55.9502L136.862 56.264C138.009 56.6427 139.102 57.1837 140.238 57.6706L156.619 153.752V153.828H156.543L153.038 154.542L95.919 166.152H95.8324V166.065C84.9259 104.326 77.3302 61.2736 77.2004 60.5162Z" fill="#E0E0E0"/>
<path d="M63.6216 68.5988L71.4336 64.0219L90.7257 168.067L81.1608 167.634L63.6216 68.5988Z" fill="#EBEBEB"/>
<path d="M83.13 165.156C83.13 165.156 79.1699 143.333 74.3983 116.38C69.6267 89.4273 65.7423 67.5709 65.8397 67.5601C65.9371 67.5492 69.7998 89.3948 74.5714 116.347C79.343 143.3 83.1733 165.156 83.13 165.156Z" fill="#E0E0E0"/>
<path d="M70.7409 82.048L66.3047 99.9876L75.7506 110.31L70.7409 82.048Z" fill="#F5F5F5"/>
<path d="M85.2939 164.193C85.2939 164.193 81.5177 143.376 76.9625 117.667C72.4073 91.9592 68.7609 71.1415 68.815 71.1415C68.8691 71.1415 72.5912 91.9483 77.1465 117.667C81.7017 143.387 85.348 164.183 85.2939 164.193Z" fill="#E0E0E0"/>
<path d="M88.1396 167.45C88.1396 167.45 84.1578 145.464 79.3538 118.327C74.5497 91.1909 70.6978 69.1939 70.6978 69.183C70.6978 69.1722 74.6903 91.1585 79.4944 118.306C84.2985 145.453 88.1937 167.439 88.1396 167.45Z" fill="#E0E0E0"/>
<path d="M131.777 69.486C131.232 69.4841 130.688 69.4298 130.154 69.3237C129.072 69.1723 127.6 68.9883 125.739 68.8152C116.001 67.8963 106.176 68.7058 96.7198 71.2064C94.9128 71.6825 93.4738 72.1153 92.4567 72.4291C91.9464 72.6248 91.4169 72.7663 90.877 72.8511C91.3588 72.5979 91.8621 72.3879 92.3809 72.2235C93.3656 71.834 94.8154 71.3579 96.6224 70.8277C106.101 68.0798 116.036 67.263 125.836 68.4257C127.708 68.6529 129.212 68.8909 130.24 69.1073C130.763 69.1844 131.278 69.3112 131.777 69.486Z" fill="#E0E0E0"/>
<path d="M133.086 77.7741C132.537 77.7651 131.991 77.7109 131.452 77.6119C130.37 77.4604 128.909 77.2764 127.048 77.1033C117.31 76.1844 107.485 76.9939 98.0288 79.4945C96.2219 79.9706 94.7828 80.3926 93.7658 80.7172C93.2555 80.9129 92.726 81.0544 92.186 81.1392C92.6679 80.886 93.1712 80.676 93.69 80.5116C94.6746 80.1221 96.1137 79.646 97.9206 79.1158C107.4 76.3699 117.334 75.5531 127.135 76.7138C128.996 76.941 130.51 77.179 131.538 77.3954C132.065 77.4739 132.583 77.6006 133.086 77.7741Z" fill="#E0E0E0"/>
<path d="M134.482 86.0623C133.933 86.0537 133.387 85.9994 132.848 85.9C131.766 85.7485 130.305 85.5646 128.444 85.3914C118.706 84.4725 108.881 85.2821 99.4247 87.7827C97.6178 88.2587 96.1787 88.6807 95.0967 89.0053C94.5881 89.1949 94.0629 89.3361 93.5278 89.4273C94.0083 89.1713 94.5119 88.9612 95.0318 88.7997C96.0164 88.4102 97.4555 87.9341 99.2624 87.404C108.725 84.6644 118.639 83.8477 128.422 85.0019C130.294 85.2183 131.798 85.4672 132.837 85.6836C133.396 85.7559 133.947 85.8828 134.482 86.0623Z" fill="#E0E0E0"/>
<path d="M135.823 94.3504C135.279 94.3411 134.736 94.2868 134.2 94.1881C133.118 94.0366 131.658 93.8527 129.786 93.6796C120.051 92.7612 110.23 93.5708 100.777 96.0708C98.9596 96.5468 97.5313 96.9688 96.4493 97.2934C95.9379 97.4855 95.4087 97.6268 94.8696 97.7154C95.356 97.464 95.8628 97.2541 96.3844 97.0879C97.3582 96.6983 98.8081 96.2223 100.615 95.6921C105.355 94.3284 110.219 93.4439 115.135 93.052C120.03 92.6531 124.951 92.7365 129.829 93.3009C131.701 93.5281 133.205 93.7769 134.233 93.9933C134.774 94.058 135.307 94.1776 135.823 94.3504Z" fill="#E0E0E0"/>
<path d="M137.9 102.79C137.355 102.78 136.812 102.722 136.277 102.617C135.195 102.476 133.724 102.292 131.863 102.119C127.006 101.67 122.119 101.638 117.256 102.022C112.393 102.434 107.574 103.267 102.854 104.51C101.037 104.986 99.6085 105.408 98.5265 105.733C98.012 105.916 97.4838 106.057 96.9468 106.155C97.4338 105.899 97.9403 105.682 98.4616 105.506C99.4462 105.127 100.896 104.64 102.703 104.11C112.185 101.376 122.116 100.56 131.917 101.708C133.789 101.935 135.293 102.173 136.321 102.39C136.859 102.474 137.388 102.608 137.9 102.79Z" fill="#E0E0E0"/>
<path d="M141.482 113.394C140.909 113.377 140.338 113.319 139.773 113.22C139.232 113.134 138.561 113.047 137.782 112.972C137.003 112.896 136.126 112.777 135.142 112.712C133.183 112.528 130.814 112.441 128.238 112.398C125.663 112.355 122.828 112.485 119.788 112.723C116.748 112.961 113.956 113.361 111.392 113.805C108.827 114.248 106.533 114.746 104.64 115.255C103.677 115.482 102.822 115.731 102.076 115.936C101.329 116.142 100.669 116.337 100.15 116.51C99.6104 116.713 99.0522 116.861 98.4834 116.953C98.9946 116.69 99.5266 116.469 100.074 116.293C100.593 116.099 101.232 115.871 101.978 115.633C102.725 115.395 103.58 115.114 104.532 114.865C106.436 114.313 108.73 113.783 111.305 113.296C113.88 112.809 116.715 112.441 119.734 112.214C122.753 111.987 125.631 111.9 128.238 111.933C130.846 111.965 133.216 112.138 135.174 112.376C136.159 112.463 137.046 112.604 137.825 112.712C138.604 112.82 139.264 112.939 139.805 113.058C140.373 113.118 140.934 113.231 141.482 113.394Z" fill="#E0E0E0"/>
<path d="M143.386 123.348C142.812 123.376 142.236 123.35 141.666 123.272C140.584 123.175 138.961 123.099 136.981 123.034C131.825 122.921 126.667 123.196 121.552 123.857C115.557 124.614 110.18 125.696 106.285 126.486L101.675 127.405C101.119 127.552 100.55 127.642 99.9766 127.676C100.515 127.472 101.069 127.31 101.632 127.189C102.714 126.919 104.272 126.54 106.209 126.107C111.248 124.931 116.344 124.01 121.476 123.348C126.618 122.668 131.81 122.443 136.992 122.677C138.983 122.796 140.584 122.937 141.688 123.099C142.26 123.129 142.829 123.212 143.386 123.348Z" fill="#E0E0E0"/>
<path d="M143.906 134.092C143.341 134.143 142.772 134.143 142.207 134.092C141.125 134.092 139.524 134.092 137.576 134.19C132.5 134.405 127.441 134.929 122.428 135.759C116.542 136.711 111.273 137.923 107.497 139.005C105.603 139.513 104.078 139.935 103.028 140.238C102.491 140.427 101.936 140.565 101.373 140.649C101.884 140.397 102.416 140.191 102.963 140.032C104.045 139.654 105.506 139.178 107.388 138.626C112.274 137.198 117.243 136.071 122.266 135.25C127.313 134.399 132.416 133.925 137.533 133.833C139.491 133.833 141.082 133.833 142.175 133.919C142.756 133.921 143.336 133.979 143.906 134.092Z" fill="#E0E0E0"/>
<path d="M196.545 54.7384C195.917 54.8966 195.276 55.0015 194.63 55.0521C193.386 55.2144 191.6 55.4741 189.393 55.8095C184.979 56.4912 178.919 57.6165 172.319 59.3152C165.719 61.014 159.876 62.994 155.7 64.5521C153.601 65.3203 151.913 65.9695 150.755 66.4348C150.16 66.6944 149.55 66.9149 148.926 67.0948C148.926 67.0948 149.067 66.9866 149.37 66.8459L150.668 66.2292C151.804 65.7098 153.471 65.0065 155.548 64.1734C160.98 62.0434 166.533 60.2369 172.178 58.7634C177.83 57.3046 183.564 56.1881 189.35 55.42C191.514 55.1279 193.364 54.9331 194.619 54.8357L196.058 54.7384C196.219 54.7111 196.384 54.7111 196.545 54.7384Z" fill="#E0E0E0"/>
<path d="M202.745 72.1586C202.585 72.2349 202.413 72.2825 202.237 72.2992L200.754 72.5914L195.344 73.6085C190.757 74.4849 184.438 75.7725 177.524 77.5145C170.61 79.2565 164.41 81.0526 159.941 82.4268L154.661 84.0822L153.222 84.5258C153.055 84.587 152.88 84.6234 152.703 84.634C152.854 84.5465 153.013 84.474 153.179 84.4176L154.585 83.8766C155.808 83.4114 157.604 82.7946 159.822 82.0481C164.258 80.5657 170.447 78.6939 177.383 76.9627C184.319 75.2315 190.659 73.9872 195.279 73.2189C197.584 72.8294 199.456 72.5373 200.754 72.375L202.247 72.191C202.412 72.1675 202.579 72.1566 202.745 72.1586Z" fill="#E0E0E0"/>
<path d="M203.784 81.8317C203.624 81.9115 203.452 81.9627 203.275 81.9831L201.771 82.2861L196.231 83.3681C191.568 84.2662 185.119 85.5321 178.043 87.1118C170.966 88.6915 164.572 90.2388 159.963 91.4398L154.498 92.814L153.005 93.171C152.833 93.2206 152.655 93.2497 152.475 93.2576C152.635 93.1678 152.806 93.0987 152.984 93.052L154.444 92.5976C155.71 92.208 157.571 91.6779 159.854 91.0503C164.442 89.7952 170.815 88.1722 177.913 86.5925C185.011 85.0127 191.514 83.7468 196.166 82.9569C198.514 82.5566 200.419 82.2536 201.728 82.0697L203.253 81.8641C203.428 81.8316 203.606 81.8207 203.784 81.8317Z" fill="#E0E0E0"/>
<path d="M206.11 92.5976C206.11 92.749 194.597 95.1403 180.347 97.9318C166.097 100.723 154.498 102.855 154.466 102.703C154.433 102.552 165.968 100.161 180.239 97.38C194.511 94.5993 206.077 92.4461 206.11 92.5976Z" fill="#E0E0E0"/>
<path d="M209.442 103.169C209.442 103.32 197.941 105.603 183.702 108.265C169.462 110.927 157.885 112.972 157.853 112.82C157.82 112.669 169.354 110.375 183.593 107.713C197.833 105.051 209.41 103.017 209.442 103.169Z" fill="#E0E0E0"/>
<path d="M211.542 114.692C211.542 114.843 199.986 116.759 185.671 118.955C171.356 121.152 159.703 122.818 159.703 122.666C159.703 122.515 171.259 120.6 185.574 118.403C199.889 116.207 211.52 114.519 211.542 114.692Z" fill="#E0E0E0"/>
<path d="M210.773 125.988C210.773 126.15 200.581 127.925 187.943 129.959C175.305 131.993 165.048 133.519 165.026 133.367C165.005 133.216 175.219 131.441 187.857 129.396C200.494 127.351 210.752 125.837 210.773 125.988Z" fill="#E0E0E0"/>
<path d="M201.046 63.5783C200.886 63.6389 200.719 63.6789 200.548 63.6973L199.088 63.9462L193.786 64.8334C189.306 65.6125 183.15 66.8351 176.474 68.5555C169.798 70.2759 163.782 72.1802 159.487 73.6517L154.401 75.437L153.027 75.9131C152.87 75.9844 152.701 76.0283 152.529 76.0429C152.669 75.9427 152.822 75.8626 152.984 75.8049L154.325 75.2314C155.505 74.7337 157.214 74.0629 159.357 73.2838C164.934 71.2434 170.611 69.4847 176.366 68.0145C183.096 66.2833 189.285 65.1256 193.786 64.4439C196.037 64.0977 197.854 63.8596 199.12 63.7298L200.581 63.5891C200.734 63.5612 200.891 63.5576 201.046 63.5783Z" fill="#E0E0E0"/>
<path d="M494.712 38.5841H380.755V227.209H494.712V38.5841Z" fill="#E0E0E0"/>
<path d="M490.925 38.5841H376.969V227.209H490.925V38.5841Z" fill="#EBEBEB"/>
<path d="M486.077 42.4036H381.827V223.379H486.077V42.4036Z" fill="white"/>
<path d="M465.779 65.9262H401.67V199.867H465.779V65.9262Z" fill="#EBEBEB"/>
<path d="M401.67 152.475C401.519 139.957 412.772 127.741 425.161 125.999C431.068 125.166 437.344 126.334 442.873 124.073C452.719 120.037 455.857 106.945 465.779 103.06L466.233 199.867H401.67V152.475Z" fill="#E0E0E0"/>
<path d="M57.346 352.883C51.3941 349.15 44.6642 346.832 37.6752 346.11C34.4292 345.775 30.956 345.872 28.3808 347.82C28.0827 347.99 27.836 348.238 27.6666 348.537C27.4971 348.836 27.4112 349.175 27.4178 349.518C27.5657 350.004 27.8899 350.417 28.3267 350.676C36.3335 356.789 48.4303 357.558 57.346 352.84" fill="#E0E0E0"/>
<path d="M56.8375 352.321C52.2837 348.979 48.0363 345.239 44.1456 341.144C40.2348 337.025 37.4836 331.944 36.1713 326.418C35.8358 324.741 35.7276 322.826 36.8096 321.484C46.9263 329.393 54.8899 339.629 56.8375 352.321Z" fill="#E0E0E0"/>
<path d="M57.2375 352.797C56.3041 347.271 56.3848 341.621 57.4755 336.123C58.7523 330.713 61.7061 325.466 66.3587 322.36C68.1116 326.45 67.3542 331.168 66.1207 335.442C64.2177 342.057 61.2542 348.32 57.3457 353.987" fill="#E0E0E0"/>
<path d="M67.1705 370.585C61.1438 371.321 55.8961 374.491 51.395 378.57C46.8745 382.687 43.7249 388.091 42.3711 394.054C48.2896 393.696 53.2993 389.52 56.9348 384.846C60.5703 380.171 63.0914 375.054 67.084 370.682" fill="#E0E0E0"/>
<path d="M69.3233 373.431C66.9574 367.408 66.129 360.891 66.9129 354.468C67.6969 348.046 70.0685 341.919 73.8136 336.643C77.2436 348.858 75.9776 362.611 69.3233 373.431Z" fill="#E0E0E0"/>
<path d="M82.4376 389.044C76.9296 388.702 71.4427 389.987 66.6599 392.741C61.8771 395.494 58.0097 399.593 55.5391 404.527C55.2145 405.198 54.9115 406.042 55.3659 406.637C55.5961 406.864 55.8781 407.03 56.1874 407.123C56.4966 407.215 56.8238 407.23 57.1404 407.167C62.4422 406.821 67.1489 403.629 71.0225 400.005C74.896 396.38 78.2719 392.171 82.5566 389.033" fill="#E0E0E0"/>
<path d="M82.0154 388.2C79.2021 379.109 79.0294 369.405 81.5177 360.219C82.5023 356.616 84.1578 352.819 87.4903 351.131C87.6116 351.028 87.7574 350.959 87.9134 350.929C88.0695 350.9 88.2306 350.911 88.3809 350.962C88.5313 351.013 88.6658 351.103 88.7714 351.221C88.877 351.34 88.9501 351.484 88.9835 351.639C90.0974 354.161 90.5802 356.917 90.3901 359.668C90.194 362.406 89.7742 365.124 89.135 367.793C88.053 372.76 87.5228 378.105 84.807 382.39C84.1593 383.434 83.5775 384.518 83.065 385.636C82.5564 386.718 82.5456 387.107 82.0803 387.973" fill="#E0E0E0"/>
<path d="M116.737 393.372C114.161 383.634 116.899 371.732 123.055 363.703C123.51 363.119 124.137 362.481 124.852 362.557C125.934 362.654 126.291 364.169 126.236 365.305C125.768 375.367 122.475 385.094 116.737 393.372Z" fill="#E0E0E0"/>
<path d="M119.864 395.514C131.766 398.598 145.388 395.601 155.278 388.308C149.351 385.332 142.575 384.502 136.105 385.96C129.699 387.421 123.856 390.288 119.875 395.514" fill="#E0E0E0"/>
<path d="M122.504 389.001C129.158 378.181 141.926 371.061 154.639 370.412C153.179 375.584 148.926 379.609 144.133 382.033C139.34 384.456 133.984 385.517 128.704 386.544C126.648 386.945 123.835 387.378 122.504 389.001Z" fill="#E0E0E0"/>
<path d="M117.397 357.385C119.204 351.206 121.011 344.985 121.508 338.569C122.006 332.152 121.086 325.455 117.754 319.947C111.543 331.979 110.916 346.045 117.213 358.034" fill="#E0E0E0"/>
<path d="M138.333 346.803C145.605 333.591 160.439 322.999 175.457 321.549C169.657 335.972 153.871 347.116 138.333 346.803Z" fill="#E0E0E0"/>
<path d="M133.757 349.399C144.577 351.044 153.839 357.969 163.977 362.167C166.099 363.195 168.453 363.647 170.805 363.476C171.898 363.464 172.962 363.116 173.852 362.48C174.742 361.843 175.416 360.949 175.781 359.918C176.147 358.887 176.188 357.769 175.897 356.714C175.607 355.659 175 354.719 174.159 354.02C172.724 352.691 171.034 351.668 169.192 351.012C158.156 346.413 146.319 346.294 134.687 349.086" fill="#E0E0E0"/>
<path d="M127.481 357.06C129.937 357.763 130.781 359.029 132.718 360.685C139.349 366.319 147.192 370.348 155.634 372.457C156.511 372.673 157.658 372.76 158.091 371.97C158.523 371.18 157.993 370.444 157.506 369.806C153.819 365.491 149.039 362.248 143.667 360.414C138.377 358.445 133.8 356.086 127.438 356.584" fill="#E0E0E0"/>
<path d="M120.405 311.064C124.852 315.161 130.106 318.283 135.83 320.23C141.554 322.177 147.621 322.906 153.644 322.371C154.194 322.378 154.728 322.186 155.148 321.83C155.992 320.921 154.986 319.515 154.012 318.757C144.274 311.129 132.372 307.937 120.394 311.064" fill="#E0E0E0"/>
<path d="M128.758 307.991C134.642 303.658 141.468 300.778 148.678 299.587C155.888 298.397 163.277 298.93 170.242 301.142C165.016 306.293 157.766 309.062 150.474 309.798C143.185 310.47 135.835 309.859 128.758 307.991Z" fill="#E0E0E0"/>
<path d="M125.512 286.881C124.549 277.143 125.176 269.418 124.495 259.615C124.441 258.836 124.278 257.895 123.543 257.613C122.526 257.213 121.671 258.468 121.379 259.507C119.961 264.052 119.599 268.861 120.321 273.568C121.043 278.274 122.829 282.754 125.544 286.665" fill="#E0E0E0"/>
<path d="M124.754 287.953C131.365 283.863 136.332 278.528 140.919 272.242C144.111 267.914 146.806 262.645 146.081 257.289C141.59 257.191 137.338 259.669 134.417 263.077C131.634 266.611 129.612 270.682 128.476 275.034C127.178 279.362 126.312 283.69 124.754 287.953Z" fill="#E0E0E0"/>
<path d="M140.66 283.549C155.209 278.161 168.679 270.217 180.434 260.091C175.684 258.176 170.242 259.323 165.492 261.238C154.672 265.62 145.778 273.01 140.454 283.441" fill="#E0E0E0"/>
<path d="M129.223 293.298C136.57 294.098 144.025 294.618 151.307 293.406C158.589 292.194 165.232 289.37 171.93 286.546C172.517 286.379 173.017 285.991 173.325 285.464C173.433 285.154 173.443 284.819 173.354 284.504C173.265 284.189 173.081 283.908 172.828 283.7C172.31 283.296 171.707 283.015 171.064 282.878C163.793 280.844 155.916 281.796 148.786 284.209C141.966 286.54 135.409 289.579 129.223 293.276" fill="#E0E0E0"/>
<path d="M87.2954 311.4C82.2857 301.283 82.6103 289.478 86.9383 279.059C89.9896 283.7 90.3575 289.608 89.7948 295.137C89.2322 300.666 87.5659 306.347 87.4577 311.897" fill="#E0E0E0"/>
<path d="M67.2783 301.305C61.002 301.217 54.7766 302.442 49.0007 304.899C43.2249 307.357 38.0258 310.993 33.7363 315.576C39.9795 316.561 46.4065 314.949 52.1303 312.179C57.8541 309.409 62.8529 305.514 67.8626 301.651" fill="#E0E0E0"/>
<path d="M53.8293 296.803C47.7052 296.306 41.8191 295.548 35.9438 297.355C30.0686 299.162 24.7018 303.241 22.2998 308.911C28.0734 309.38 33.8669 308.285 39.0708 305.741C44.2476 303.209 49.1869 300.218 53.8293 296.803Z" fill="#E0E0E0"/>
<path d="M73.7488 297.009C68.2414 293.395 62.5933 289.727 56.1879 288.234C49.7824 286.741 42.3491 287.812 37.8696 292.67C43.0524 295.721 49.3496 296.078 55.3656 296.078C61.3815 296.078 68.7499 296.003 74.4304 298.004" fill="#E0E0E0"/>
<path d="M73.7816 297.301C64.3682 288.061 60.7976 271.452 64.5954 258.825C72.0186 270.201 75.2653 283.799 73.7816 297.301Z" fill="#E0E0E0"/>
<path d="M99.6626 271.117C101.437 266.994 102.681 262.655 104.272 258.457C105.723 254.195 107.954 250.24 110.85 246.793C113.792 243.329 117.977 241.161 122.504 240.756C121.058 247.121 118.301 253.115 114.407 258.355C110.513 263.594 105.568 267.962 99.8898 271.182" fill="#E0E0E0"/>
<path d="M94.9776 276.57C92.0345 272.534 88.6479 267.038 84.6661 264.019C80.6843 261 75.4907 259.182 70.6001 260.34C73.1175 264.751 76.6286 268.515 80.8545 271.332C85.0805 274.149 89.905 275.943 94.9451 276.57" fill="#E0E0E0"/>
<path d="M95.9083 271.452C93.9931 266.562 92.0455 261.617 91.2665 256.423C90.4875 251.23 90.9635 245.668 93.6253 241.135C98.7864 250.873 100.453 261.379 96.1788 271.56" fill="#E0E0E0"/>
<path d="M99.7061 241.135C102.627 231.397 111.5 224.32 121.065 221.053C122.249 220.568 123.533 220.375 124.808 220.49C125.444 220.56 126.045 220.815 126.536 221.225C127.027 221.635 127.386 222.181 127.568 222.795C127.914 224.439 126.561 225.922 125.274 227.014C117.796 233.404 109.097 238.208 99.7061 241.135Z" fill="#E0E0E0"/>
<path d="M99.8141 233.214C100.182 226.971 100.571 220.641 102.606 214.734C104.64 208.826 108.546 203.265 114.237 200.668C115.2 206.976 112.419 213.241 109.065 218.672C105.711 224.104 101.675 229.211 99.6626 235.259" fill="#E0E0E0"/>
<path d="M99.6627 237.51C97.2391 230.455 96.9902 221.496 92.7704 215.35C89.8165 211.022 85.0882 208.123 82.5347 203.578C81.003 207.943 81.2162 212.73 83.1298 216.941C85.0543 221.104 87.7031 224.892 90.9526 228.129C94.0796 231.472 96.7522 233.982 99.6086 237.51" fill="#E0E0E0"/>
<path d="M99.7059 445.265C99.5219 445.265 99.3596 398.198 99.338 340.159C99.3164 282.121 99.4678 235.054 99.6626 235.054C99.8574 235.054 100.009 282.099 100.02 340.159C100.03 398.219 99.8898 445.265 99.7059 445.265Z" fill="#E0E0E0"/>
<path d="M140.833 304.291C140.263 304.568 139.669 304.793 139.058 304.962L134.189 306.595C130.089 308.002 124.451 310.025 118.327 312.536C112.203 315.046 106.544 317.242 103.287 320.11C101.993 321.196 100.961 322.561 100.269 324.102C99.8034 325.184 99.7168 325.888 99.6627 325.877C99.6086 325.866 99.6627 325.704 99.6627 325.379C99.7377 324.912 99.8536 324.452 100.009 324.005C100.628 322.366 101.643 320.905 102.963 319.753C104.919 318.093 107.106 316.726 109.455 315.695C112.062 314.483 114.951 313.207 118.024 311.951C124.159 309.43 129.851 307.472 134.005 306.184C136.072 305.535 137.771 305.102 138.939 304.745C139.556 304.538 140.189 304.386 140.833 304.291Z" fill="#E0E0E0"/>
<path d="M154.315 271.182C154.167 271.375 154 271.552 153.817 271.712L152.302 273.129L146.665 278.247L127.903 294.953C120.578 301.445 114.248 307.71 109.866 312.395C107.702 314.743 105.938 316.723 104.759 318.032L103.396 319.59C103.246 319.782 103.076 319.956 102.887 320.11C102.993 319.891 103.127 319.687 103.288 319.504C103.569 319.125 103.991 318.562 104.553 317.87C105.635 316.453 107.356 314.462 109.509 312.07C115.173 305.886 121.162 300.006 127.449 294.455C134.806 287.963 141.515 282.099 146.351 277.89L152.129 272.934L153.72 271.604C154.098 271.311 154.293 271.16 154.315 271.182Z" fill="#E0E0E0"/>
<path d="M119.994 301.586C119.81 301.499 121.335 297.972 122.861 293.503C124.387 289.035 125.122 285.258 125.317 285.291C125.512 285.323 125.057 289.197 123.499 293.72C122.848 295.647 122.089 297.536 121.227 299.379C120.927 300.171 120.512 300.915 119.994 301.586Z" fill="#E0E0E0"/>
<path d="M99.7492 330.075C99.3443 329.677 98.9817 329.238 98.6672 328.766L95.7675 325.054C93.3438 321.917 89.9896 317.578 86.2242 312.839C82.4589 308.099 78.9965 303.836 76.4862 300.764C75.3069 299.303 74.3222 298.069 73.5324 297.106C73.1415 296.676 72.7936 296.209 72.4937 295.711C72.9425 296.075 73.3523 296.484 73.7163 296.933C74.4737 297.756 75.5341 298.957 76.8325 300.45C79.4401 303.458 82.9674 307.667 86.7328 312.417C90.4981 317.167 93.7982 321.549 96.1354 324.762C97.3039 326.374 98.2344 327.684 98.8512 328.603C99.1987 329.063 99.4996 329.556 99.7492 330.075Z" fill="#E0E0E0"/>
<path d="M90.7364 318.497C90.6174 318.616 88.2153 315.76 86.9494 311.421C86.2434 309.114 85.954 306.7 86.0946 304.291H86.3976C86.2677 304.843 86.1595 305.124 86.1163 305.124C86.073 305.124 86.0513 304.81 86.1163 304.248H86.4192C86.5685 306.612 86.9785 308.952 87.6419 311.226C88.8213 315.435 90.8879 318.378 90.7364 318.497Z" fill="#E0E0E0"/>
<path d="M79.0938 303.847C78.2793 303.233 77.3927 302.721 76.4537 302.322C74.08 301.615 71.5842 301.416 69.1286 301.737C66.6441 301.933 64.1798 302.331 61.7601 302.928C60.7662 303.245 59.7499 303.487 58.7197 303.652C59.6252 303.113 60.6063 302.712 61.6303 302.462C64.0504 301.713 66.5478 301.241 69.0745 301.056C71.6285 300.719 74.2262 301.001 76.6485 301.878C77.6632 302.238 78.5255 302.933 79.0938 303.847Z" fill="#E0E0E0"/>
<path d="M76.3348 300.298C76.3348 300.406 74.7984 299.692 72.2881 298.827C69.0242 297.727 65.6374 297.033 62.2039 296.76C58.7693 296.504 55.3162 296.679 51.9249 297.279C49.3173 297.745 47.7484 298.232 47.7051 298.123C48.041 297.919 48.4057 297.765 48.7871 297.669C49.7849 297.316 50.804 297.027 51.8383 296.803C55.262 296.06 58.7752 295.816 62.2688 296.078C65.7722 296.338 69.2178 297.114 72.4937 298.383C73.4712 298.762 74.4219 299.207 75.3394 299.714C75.6948 299.865 76.0293 300.062 76.3348 300.298Z" fill="#E0E0E0"/>
<path d="M99.6627 285.291C99.4787 285.345 98.1587 280.757 96.7088 275.055C95.2589 269.353 94.2418 264.7 94.4258 264.657C94.6097 264.614 95.9298 269.191 97.3688 274.893C98.8079 280.595 99.8358 285.248 99.6627 285.291Z" fill="#E0E0E0"/>
<path d="M99.847 285.291C99.6414 285.356 98.765 282.294 96.601 279.167C95.2165 277.314 93.6022 275.646 91.7969 274.2C92.4777 274.379 93.1099 274.708 93.6471 275.163C95.0153 276.16 96.2043 277.382 97.1636 278.777C99.4358 282.034 100.009 285.28 99.847 285.291Z" fill="#E0E0E0"/>
<path d="M99.706 420.173C99.6303 420.173 99.4896 419.091 98.9594 417.046C98.187 414.233 97.1359 411.503 95.8216 408.899C92.5756 402.255 86.6463 393.826 79.1372 385.387C75.4043 381.134 71.7904 377.12 68.7283 373.279C65.9748 369.898 63.486 366.31 61.2842 362.546C59.8095 360.002 58.5535 357.338 57.5296 354.582C57.1834 353.598 56.9345 352.829 56.7939 352.299C56.699 352.037 56.6337 351.765 56.5991 351.488C56.5991 351.488 56.9995 352.57 57.7785 354.485C58.8776 357.184 60.1797 359.795 61.6737 362.297C63.9398 366.002 66.4711 369.539 69.2477 372.879C72.3314 376.687 75.9453 380.68 79.6782 384.943C87.2522 393.404 93.1166 401.931 96.2869 408.747C97.5754 411.393 98.5696 414.172 99.2516 417.035C99.468 418.052 99.6194 418.853 99.6735 419.394C99.7095 419.652 99.7204 419.913 99.706 420.173Z" fill="#E0E0E0"/>
<path d="M136.873 378.202C136.246 378.601 135.595 378.962 134.925 379.284C133.162 380.274 131.473 381.392 129.872 382.628C127.504 384.464 125.286 386.487 123.24 388.676C120.903 391.132 118.511 393.989 116.055 397.051C111.165 403.196 106.588 408.628 103.839 412.967C102.454 415.131 101.437 416.927 100.777 418.204C100.461 418.88 100.099 419.534 99.6953 420.162C99.7285 419.97 99.7905 419.784 99.8793 419.61C100.02 419.264 100.215 418.734 100.528 418.085C101.385 416.225 102.353 414.418 103.428 412.675C106.09 408.239 110.634 402.72 115.514 396.596C117.97 393.523 120.394 390.667 122.774 388.211C124.865 386.02 127.138 384.011 129.569 382.206C131.213 380.994 132.958 379.926 134.785 379.014C135.434 378.689 135.964 378.494 136.31 378.343C136.489 378.267 136.679 378.219 136.873 378.202Z" fill="#E0E0E0"/>
<path d="M137.598 391.814C136.241 392.122 134.863 392.325 133.475 392.42C130.178 392.759 126.918 393.4 123.737 394.335C120.585 395.359 117.628 396.91 114.995 398.923C112.982 400.481 112.03 401.768 111.933 401.692C112.085 401.347 112.293 401.029 112.549 400.751C113.192 399.955 113.917 399.23 114.713 398.587C117.319 396.412 120.321 394.763 123.553 393.729C126.783 392.767 130.112 392.175 133.475 391.965C134.842 391.792 136.222 391.742 137.598 391.814Z" fill="#E0E0E0"/>
<path d="M113.112 400.199C112.906 400.08 114.757 397.245 116.196 393.437C117.635 389.628 117.862 386.209 118.1 386.252C118.205 386.972 118.183 387.704 118.035 388.416C117.831 390.191 117.428 391.937 116.834 393.621C116.212 395.293 115.411 396.893 114.443 398.392C114.106 399.067 113.656 399.678 113.112 400.199Z" fill="#E0E0E0"/>
<path d="M148.905 341.641C148.7 341.784 148.478 341.901 148.244 341.988L146.308 342.875C145.464 343.232 144.436 343.697 143.278 344.303C142.12 344.909 140.757 345.526 139.34 346.37L137.1 347.647C136.321 348.101 135.553 348.631 134.73 349.14C133.075 350.146 131.409 351.39 129.645 352.645C122.063 358.296 115.449 365.141 110.061 372.911C108.86 374.718 107.68 376.428 106.728 378.116C106.252 378.949 105.744 379.739 105.322 380.529C104.9 381.318 104.51 382.087 104.121 382.822C103.32 384.261 102.746 385.636 102.195 386.826C101.643 388.016 101.199 389.044 100.864 389.899C100.528 390.753 100.258 391.349 100.052 391.868C99.9658 392.103 99.8533 392.328 99.7168 392.539C99.7578 392.294 99.8267 392.054 99.9224 391.825L100.615 389.812C100.971 388.742 101.382 387.691 101.848 386.663C102.368 385.462 102.93 384.067 103.688 382.606C104.066 381.859 104.456 381.091 104.856 380.28C105.257 379.468 105.765 378.678 106.241 377.824C107.183 376.114 108.405 374.394 109.487 372.554C114.86 364.684 121.529 357.784 129.212 352.148C131.008 350.882 132.696 349.659 134.373 348.664C135.206 348.166 135.985 347.636 136.775 347.203L139.058 345.948C140.497 345.126 141.872 344.53 143.062 343.968C144.07 343.468 145.103 343.021 146.156 342.626L148.234 341.912C148.445 341.795 148.671 341.704 148.905 341.641Z" fill="#E0E0E0"/>
<path d="M119.496 361.388C119.762 360.435 120.328 359.593 121.108 358.986C122.911 357.416 125.21 356.531 127.6 356.487C129.953 356.472 132.286 356.928 134.46 357.828C135.383 358.117 136.258 358.54 137.057 359.083C136.119 358.899 135.199 358.631 134.309 358.283C132.155 357.553 129.895 357.187 127.622 357.201C125.371 357.245 123.193 358.003 121.4 359.365C120.72 359.994 120.084 360.671 119.496 361.388Z" fill="#E0E0E0"/>
<path d="M115.092 365.889C114.908 365.781 116.564 363.346 116.943 359.862C117.321 356.378 116.326 353.641 116.531 353.576C116.92 354.092 117.183 354.693 117.3 355.329C117.691 356.832 117.801 358.395 117.624 359.938C117.449 361.485 116.978 362.983 116.239 364.353C115.666 365.391 115.157 365.932 115.092 365.889Z" fill="#E0E0E0"/>
<path d="M67.2026 426.914C68.2197 444.908 73.6946 463.193 81.9719 481.685H118.219C126.172 463.377 131.203 445.113 132.112 426.914H67.2026Z" fill="#E0E0E0"/>
<path d="M126.237 456.02C126.237 456.204 114.335 456.366 99.5872 456.366C84.8396 456.366 72.9268 456.204 72.9268 456.02C72.9268 455.836 84.8288 455.684 99.5872 455.684C114.346 455.684 126.237 455.836 126.237 456.02Z" fill="#FAFAFA"/>
<path d="M125.425 462.533C125.425 462.728 114.237 462.88 100.442 462.88C86.6465 462.88 75.4478 462.728 75.4478 462.533C75.4478 462.339 86.6356 462.198 100.442 462.198C114.248 462.198 125.425 462.349 125.425 462.533Z" fill="#FAFAFA"/>
<path d="M82.5566 438.729C82.7406 438.729 82.9029 442.462 82.9029 447.072C82.9029 451.681 82.7406 455.425 82.5566 455.425C82.3727 455.425 82.2212 451.692 82.2212 447.072C82.2212 442.451 82.3727 438.729 82.5566 438.729Z" fill="#FAFAFA"/>
<path d="M101.978 438.729C102.173 438.729 102.325 442.603 102.325 447.385C102.325 452.168 102.173 456.041 101.978 456.041C101.784 456.041 101.643 452.168 101.643 447.385C101.643 442.603 101.795 438.729 101.978 438.729Z" fill="#FAFAFA"/>
<path d="M120.21 438.578C120.405 438.578 120.556 442.527 120.556 447.396C120.556 452.265 120.405 456.214 120.21 456.214C120.015 456.214 119.875 452.276 119.875 447.396C119.875 442.516 120.026 438.578 120.21 438.578Z" fill="#FAFAFA"/>
<path d="M130.922 438.729C130.922 438.913 116.921 439.065 99.652 439.065C82.3833 439.065 68.3931 438.913 68.3931 438.729C68.3931 438.545 82.3833 438.383 99.652 438.383C116.921 438.383 130.922 438.535 130.922 438.729Z" fill="#FAFAFA"/>
<path d="M504.353 481.999C504.353 482.15 399.648 482.28 270.511 482.28C141.374 482.28 36.6475 482.15 36.6475 481.999C36.6475 481.847 141.331 481.717 270.511 481.717C399.691 481.717 504.353 481.847 504.353 481.999Z" fill="#263238"/>
<path d="M402.071 207.181C401.071 207.038 400.051 207.172 399.122 207.569C398.192 207.966 397.39 208.61 396.802 209.432C395.823 211.033 395.383 212.907 395.547 214.777C395.49 216.555 395.997 218.305 396.997 219.776C398.532 221.592 400.703 222.753 403.067 223.022C405.283 223.283 407.53 223 409.613 222.2C410.132 220.036 409.613 217.309 409.093 214.983C408.763 213.213 408.022 211.545 406.929 210.114C405.726 208.572 403.996 207.528 402.071 207.181Z" fill="#455A64"/>
<path d="M449.961 202.118C449.908 202.372 449.836 202.621 449.744 202.864C449.571 203.405 449.333 204.108 449.052 205.028C448.424 206.857 447.559 209.508 446.541 212.819C445.524 216.129 444.377 220.079 443.295 224.504C442.213 228.93 441.067 233.831 440.049 239.003C439.032 244.175 438.34 249.152 437.756 253.686C437.171 258.219 436.793 262.342 436.544 265.761C436.295 269.18 436.122 272.004 436.046 273.93C435.992 274.85 435.96 275.596 435.927 276.159C435.929 276.417 435.9 276.675 435.84 276.927C435.827 276.668 435.827 276.408 435.84 276.148C435.84 275.585 435.84 274.85 435.84 273.919C435.84 271.993 435.959 269.191 436.165 265.739C436.371 262.288 436.728 258.165 437.247 253.621C437.766 249.076 438.535 244.099 439.508 238.906C440.482 233.712 441.672 228.8 442.754 224.374C443.836 219.949 445.081 215.989 446.163 212.7C447.245 209.41 448.143 206.759 448.846 204.952C449.171 204.087 449.441 203.394 449.636 202.875C449.715 202.611 449.823 202.357 449.961 202.118Z" fill="#263238"/>
<path d="M406.659 217.482C406.818 217.669 406.956 217.872 407.07 218.088L408.152 219.862C409.105 221.41 410.414 223.703 411.961 226.571C413.508 229.438 415.207 232.911 417.036 236.828C418.864 240.745 420.617 245.127 422.316 249.812C424.014 254.497 425.399 259.02 426.557 263.175C427.715 267.33 428.58 271.106 429.208 274.298C429.836 277.49 430.29 280.087 430.561 281.872L430.853 283.949C430.903 284.187 430.925 284.431 430.918 284.674C430.834 284.447 430.776 284.211 430.745 283.971C430.636 283.441 430.506 282.759 430.344 281.915C430.03 280.119 429.522 277.533 428.819 274.341C428.115 271.149 427.206 267.405 426.059 263.272C424.913 259.139 423.463 254.616 421.786 249.964C420.108 245.311 418.301 240.929 416.559 236.98C414.817 233.03 413.119 229.579 411.615 226.701C410.111 223.823 408.856 221.496 407.958 219.916C407.536 219.17 407.2 218.553 406.941 218.088C406.823 217.898 406.729 217.694 406.659 217.482Z" fill="#263238"/>
<path d="M445.719 270.716H422.196C421.545 270.716 421.017 271.244 421.017 271.896V271.972C421.017 272.623 421.545 273.151 422.196 273.151H445.719C446.371 273.151 446.899 272.623 446.899 271.972V271.896C446.899 271.244 446.371 270.716 445.719 270.716Z" fill="#006FCC"/>
<path d="M455.338 298.037C454.484 288.569 447.018 287.271 445.6 286.265C445.293 286.039 445.016 285.773 444.778 285.475C443.895 284.346 443.425 282.948 443.447 281.515V271.939H424.696V281.515C424.722 282.947 424.256 284.345 423.376 285.475C423.137 285.776 422.856 286.042 422.543 286.265C421.115 287.271 413.649 288.569 412.805 298.037C411.961 307.504 408.791 329.036 414.385 335.907C419.546 342.258 424.588 342.637 432.973 342.648H435.202C443.588 342.648 448.63 342.258 453.791 335.907C459.363 329.036 456.204 307.515 455.338 298.037Z" fill="#006FCC"/>
<path d="M446.304 273.227C446.304 273.378 440.775 273.508 433.958 273.508C427.141 273.508 421.612 273.378 421.612 273.227C421.612 273.075 427.141 272.945 433.958 272.945C440.775 272.945 446.304 273.064 446.304 273.227Z" fill="#263238"/>
<path d="M461.321 194.836C460.834 193.78 460.078 192.87 459.128 192.198C458.179 191.525 457.07 191.114 455.911 191.005C453.598 190.809 451.273 191.212 449.16 192.174C447.224 192.821 445.525 194.03 444.28 195.647C443.658 196.686 443.291 197.856 443.208 199.063C443.126 200.271 443.33 201.48 443.804 202.594C444.77 204.819 446.304 206.752 448.251 208.198C450.999 207.733 453.78 206.034 456.16 204.617C457.92 203.634 459.425 202.252 460.553 200.581C461.109 199.744 461.466 198.792 461.599 197.797C461.732 196.802 461.637 195.789 461.321 194.836Z" fill="#455A64"/>
<path d="M400.892 241.87C400.442 241.079 400.206 240.184 400.206 239.273C400.206 238.363 400.442 237.468 400.892 236.677C401.807 235.101 403.111 233.786 404.679 232.857C405.971 231.901 407.52 231.354 409.126 231.288C410.074 231.354 410.992 231.643 411.806 232.132C412.621 232.621 413.308 233.296 413.811 234.102C414.808 235.734 415.36 237.599 415.412 239.512C413.68 241.014 411.689 242.191 409.537 242.985C408.114 243.67 406.551 244.014 404.971 243.991C404.174 243.974 403.391 243.774 402.684 243.407C401.977 243.039 401.364 242.513 400.892 241.87Z" fill="#455A64"/>
<path d="M426.308 230.131C425.853 229.343 425.614 228.449 425.614 227.539C425.614 226.629 425.853 225.736 426.308 224.948C427.218 223.368 428.523 222.051 430.095 221.128C431.38 220.165 432.927 219.614 434.531 219.549C435.481 219.616 436.402 219.906 437.218 220.397C438.034 220.888 438.723 221.565 439.227 222.373C440.222 224.005 440.771 225.871 440.818 227.783C439.089 229.285 437.102 230.462 434.953 231.256C433.53 231.952 431.961 232.297 430.376 232.262C429.579 232.247 428.797 232.046 428.091 231.676C427.385 231.306 426.774 230.777 426.308 230.131Z" fill="#455A64"/>
<path d="M459.969 228.302C460.532 227.572 460.895 226.709 461.022 225.796C461.149 224.883 461.036 223.953 460.694 223.098C460 221.401 458.883 219.911 457.448 218.77C456.276 217.643 454.796 216.89 453.196 216.606C452.236 216.542 451.275 216.705 450.39 217.081C449.505 217.457 448.721 218.035 448.1 218.77C446.891 220.275 446.093 222.068 445.784 223.974C447.311 225.732 449.144 227.199 451.194 228.302C452.535 229.187 454.066 229.743 455.663 229.925C456.457 230.002 457.258 229.896 458.005 229.614C458.751 229.333 459.423 228.884 459.969 228.302Z" fill="#455A64"/>
<path d="M424.848 215.08C424.742 214.185 424.389 213.336 423.829 212.629C423.27 211.922 422.525 211.385 421.677 211.077C420.145 210.754 418.547 211.017 417.198 211.812C415.746 212.451 414.531 213.53 413.725 214.896C412.708 216.972 412.393 219.323 412.827 221.594C413.202 223.639 414.026 225.575 415.239 227.263C417.068 226.971 419.016 225.51 420.649 224.244C421.973 223.284 423.064 222.038 423.841 220.598C424.752 218.912 425.105 216.979 424.848 215.08Z" fill="#455A64"/>
<path d="M436.165 201.674C435.165 201.533 434.146 201.668 433.217 202.065C432.288 202.462 431.486 203.105 430.896 203.925C429.921 205.528 429.482 207.4 429.641 209.27C429.582 211.047 430.09 212.798 431.091 214.268C432.616 216.106 434.789 217.287 437.161 217.569C439.377 217.835 441.625 217.553 443.707 216.746C444.226 214.582 443.707 211.866 443.187 209.54C442.857 207.767 442.116 206.096 441.023 204.66C439.829 203.099 438.098 202.035 436.165 201.674Z" fill="#455A64"/>
<path d="M415.845 218.358C415.866 219.291 415.816 220.225 415.694 221.15C415.53 223.382 415.494 225.622 415.586 227.858C415.697 230.094 415.976 232.318 416.419 234.513C416.664 235.411 416.845 236.326 416.96 237.25C416.528 236.414 416.215 235.522 416.029 234.599C415.467 232.403 415.13 230.155 415.023 227.891C414.919 225.626 415.01 223.356 415.293 221.107C415.363 220.171 415.549 219.248 415.845 218.358Z" fill="#263238"/>
<path d="M420.952 246.566C420.025 245.156 419.021 243.798 417.944 242.498C417.15 241.62 416.261 240.833 415.294 240.15C414.558 239.631 414.017 239.436 414.049 239.349C414.082 239.263 414.666 239.349 415.499 239.814C416.575 240.42 417.543 241.199 418.366 242.119C419.621 243.335 420.516 244.874 420.952 246.566Z" fill="#263238"/>
<path d="M440.374 227.22C440.983 228.416 441.295 229.741 441.283 231.083C441.45 232.415 441.286 233.767 440.807 235.021C440.645 235.021 440.807 233.247 440.72 231.115C440.634 228.984 440.169 227.22 440.374 227.22Z" fill="#263238"/>
<path d="M446.975 222.167C445.548 224.866 443.797 227.381 441.759 229.655C442.383 228.256 443.183 226.944 444.14 225.748C444.935 224.444 445.887 223.241 446.975 222.167Z" fill="#263238"/>
<path d="M443.469 221.81C443.235 220.7 443.195 219.558 443.35 218.434C443.314 217.299 443.464 216.166 443.793 215.08C444.062 217.326 443.952 219.6 443.469 221.81Z" fill="#263238"/>
<path d="M414.741 314.721C414.502 313.553 414.379 312.365 414.373 311.172C414.228 308.289 414.228 305.4 414.373 302.516C414.471 300.839 414.547 299.27 414.752 297.766C414.91 296.449 415.345 295.181 416.029 294.044C416.499 293.279 417.149 292.64 417.922 292.183C418.189 291.991 418.503 291.875 418.831 291.848C417.808 292.412 416.955 293.242 416.364 294.25C415.768 295.363 415.401 296.585 415.282 297.842C415.098 299.26 415.044 300.872 414.958 302.549C414.795 305.892 414.795 308.933 414.817 311.129C414.868 312.327 414.842 313.527 414.741 314.721Z" fill="#263238"/>
<path d="M381.643 482.464C381.317 482.46 380.992 482.409 380.68 482.312C380.008 482.114 379.418 481.703 378.999 481.141C378.58 480.579 378.353 479.897 378.354 479.196V441.121H379.198V479.196C379.199 479.716 379.368 480.222 379.68 480.638C379.992 481.054 380.429 481.358 380.928 481.505C381.426 481.652 381.959 481.634 382.447 481.454C382.935 481.274 383.351 480.941 383.634 480.505L409.483 440.893L410.197 441.359L384.337 480.971C384.052 481.427 383.654 481.804 383.183 482.065C382.712 482.326 382.182 482.463 381.643 482.464Z" fill="#263238"/>
<path d="M484.314 482.464C483.777 482.457 483.249 482.318 482.779 482.057C482.308 481.797 481.91 481.423 481.62 480.971L455.771 441.359L456.474 440.893L482.334 480.505C482.615 480.944 483.03 481.28 483.518 481.461C484.006 481.643 484.54 481.662 485.039 481.514C485.538 481.367 485.976 481.061 486.286 480.643C486.597 480.224 486.763 479.717 486.759 479.196V441.121H487.614V479.196C487.614 479.898 487.386 480.582 486.965 481.144C486.544 481.706 485.951 482.116 485.277 482.312C484.965 482.409 484.641 482.46 484.314 482.464Z" fill="#263238"/>
<path d="M504.126 341.977H371.375V445.081H504.126V341.977Z" fill="#AE7461"/>
<path d="M464.34 388.503C464.34 388.503 464.34 388.276 464.34 387.843C464.34 387.41 464.34 386.761 464.34 385.917C464.34 384.218 464.34 381.73 464.34 378.505C464.34 372.013 464.34 362.686 464.276 350.925L464.395 351.077L378.787 351.152L378.96 350.925C378.96 363.985 378.96 376.655 378.96 388.503L378.798 388.287L440.05 388.384L457.935 388.449H462.739H463.983H462.782H458.011L440.158 388.503L378.798 388.611H378.635V388.395C378.635 376.547 378.635 363.877 378.635 350.817V350.6H378.7L464.308 350.676H464.416V350.817C464.416 362.611 464.416 372.013 464.351 378.484C464.351 381.73 464.351 384.175 464.351 385.863C464.351 386.685 464.351 387.324 464.351 387.756C464.351 388.189 464.34 388.503 464.34 388.503Z" fill="#263238"/>
<path d="M464.34 433.06C464.34 433.06 464.34 432.832 464.34 432.4C464.34 431.967 464.34 431.318 464.34 430.474C464.34 428.775 464.34 426.286 464.34 423.062C464.34 416.57 464.34 407.243 464.275 395.482L464.394 395.633L378.786 395.709L378.96 395.482C378.96 408.542 378.96 421.212 378.96 433.06L378.7 432.8L439.952 432.897L457.837 432.962H462.641H463.907H462.685H457.913L440.06 433.027L378.7 433.125H378.538V432.908C378.538 421.06 378.538 408.39 378.538 395.33V395.114H378.7L464.308 395.19H464.416V395.33C464.416 407.124 464.416 416.538 464.351 423.008C464.351 426.254 464.351 428.688 464.351 430.376C464.351 431.209 464.351 431.837 464.351 432.281C464.351 432.724 464.34 433.06 464.34 433.06Z" fill="#263238"/>
<path d="M403.986 350.709L406.767 354.582H438.643L441.813 350.709H403.986Z" fill="#263238"/>
<path d="M404.105 395.265L406.886 399.139H438.762L441.932 395.265H404.105Z" fill="#263238"/>
<path d="M504.136 341.977H473.548V445.081H504.136V341.977Z" fill="#6F4439"/>
<path d="M237.612 165.895C240.393 148.911 228.88 132.889 211.896 130.108C194.912 127.326 178.889 138.84 176.108 155.824C173.327 172.808 184.84 188.83 201.824 191.612C218.808 194.393 234.831 182.879 237.612 165.895Z" fill="white"/>
<path d="M238.04 160.861C238.005 160.697 237.984 160.531 237.975 160.363C237.975 159.995 237.921 159.508 237.878 158.881C237.878 158.556 237.878 158.188 237.802 157.799C237.727 157.409 237.672 156.977 237.597 156.5C237.457 155.404 237.24 154.32 236.948 153.254C236.212 150.349 235.045 147.57 233.485 145.01C229.797 138.835 224.07 134.14 217.291 131.734C210.512 129.328 203.107 129.362 196.351 131.831C194.969 132.327 193.624 132.92 192.326 133.605C191.008 134.324 189.743 135.133 188.539 136.029C187.31 136.947 186.142 137.944 185.044 139.015C183.957 140.138 182.945 141.331 182.014 142.586C180.1 145.166 178.613 148.038 177.611 151.09C175.49 157.409 175.49 164.248 177.611 170.566C178.608 173.621 180.096 176.493 182.014 179.071C182.948 180.328 183.959 181.524 185.044 182.652C186.142 183.72 187.31 184.714 188.539 185.628C189.743 186.527 191.008 187.341 192.326 188.062C193.627 188.743 194.971 189.336 196.351 189.837C201.545 191.721 207.147 192.188 212.581 191.189C216.892 190.376 220.983 188.661 224.585 186.157C228.188 183.653 231.22 180.416 233.485 176.658C235.047 174.1 236.215 171.32 236.948 168.413C237.24 167.348 237.457 166.263 237.597 165.167C237.672 164.702 237.759 164.269 237.802 163.869C237.846 163.469 237.856 163.111 237.878 162.787C237.878 162.159 237.954 161.705 237.975 161.315C237.983 161.144 238.005 160.974 238.04 160.807C238.04 160.807 238.04 160.98 238.04 161.315C238.04 161.651 238.04 162.17 238.04 162.798V163.88C238.04 164.28 237.932 164.724 237.867 165.189C237.748 166.285 237.545 167.37 237.261 168.435C236.57 171.382 235.424 174.204 233.864 176.799C231.601 180.632 228.549 183.941 224.909 186.504C221.269 189.067 217.126 190.827 212.754 191.665C207.211 192.745 201.479 192.319 196.156 190.432C194.751 189.924 193.382 189.324 192.055 188.636C190.711 187.906 189.42 187.081 188.193 186.169C185.621 184.322 183.37 182.067 181.527 179.493C179.569 176.87 178.049 173.947 177.026 170.837C174.862 164.392 174.862 157.416 177.026 150.971C178.053 147.864 179.573 144.941 181.527 142.315C182.477 141.036 183.511 139.822 184.622 138.68C185.743 137.591 186.936 136.579 188.193 135.65C189.417 134.705 190.708 133.848 192.055 133.086C193.382 132.398 194.751 131.798 196.156 131.29C201.443 129.384 207.145 128.928 212.667 129.97C217.038 130.807 221.181 132.565 224.821 135.126C228.46 137.688 231.513 140.994 233.777 144.826C235.334 147.422 236.48 150.243 237.175 153.19C237.459 154.255 237.661 155.34 237.781 156.436C237.846 156.912 237.921 157.344 237.954 157.745V158.827C237.954 159.454 237.954 159.909 237.954 160.32C237.954 160.731 238.04 160.861 238.04 160.861Z" fill="#263238"/>
<path d="M197.649 163.739C199.669 163.739 201.307 162.102 201.307 160.082C201.307 158.062 199.669 156.425 197.649 156.425C195.63 156.425 193.992 158.062 193.992 160.082C193.992 162.102 195.63 163.739 197.649 163.739Z" fill="#263238"/>
<path d="M207.431 163.739C209.45 163.739 211.088 162.102 211.088 160.082C211.088 158.062 209.45 156.425 207.431 156.425C205.411 156.425 203.773 158.062 203.773 160.082C203.773 162.102 205.411 163.739 207.431 163.739Z" fill="#263238"/>
<path d="M220.869 160.136C220.871 160.862 220.657 161.572 220.256 162.177C219.854 162.781 219.282 163.253 218.612 163.532C217.942 163.812 217.204 163.886 216.492 163.746C215.78 163.605 215.125 163.257 214.611 162.744C214.097 162.232 213.746 161.578 213.604 160.866C213.462 160.155 213.534 159.417 213.811 158.746C214.088 158.075 214.558 157.501 215.162 157.098C215.765 156.694 216.475 156.479 217.201 156.479C218.172 156.479 219.103 156.864 219.791 157.549C220.478 158.235 220.866 159.165 220.869 160.136Z" fill="#263238"/>
<path d="M252.507 167.634C252.507 168.49 252.253 169.327 251.777 170.039C251.302 170.75 250.626 171.305 249.835 171.633C249.044 171.96 248.174 172.046 247.334 171.879C246.495 171.712 245.724 171.3 245.118 170.695C244.513 170.089 244.101 169.318 243.934 168.479C243.767 167.639 243.852 166.769 244.18 165.978C244.508 165.187 245.062 164.511 245.774 164.036C246.486 163.56 247.323 163.306 248.179 163.306C249.326 163.306 250.427 163.762 251.239 164.574C252.051 165.386 252.507 166.486 252.507 167.634Z" fill="white"/>
<path d="M252.507 167.634C252.452 167.634 252.442 167.245 252.258 166.552C251.975 165.652 251.414 164.864 250.656 164.302C250.101 163.899 249.455 163.639 248.775 163.547C248.096 163.454 247.404 163.531 246.761 163.772C245.979 164.058 245.304 164.579 244.827 165.262C244.35 165.945 244.094 166.758 244.094 167.591C244.094 168.424 244.35 169.237 244.827 169.92C245.304 170.603 245.979 171.124 246.761 171.41C247.404 171.65 248.096 171.728 248.775 171.635C249.455 171.543 250.101 171.283 250.656 170.88C251.417 170.316 251.978 169.524 252.258 168.619C252.442 167.98 252.452 167.591 252.507 167.591C252.601 167.945 252.601 168.319 252.507 168.673C252.302 169.68 251.746 170.581 250.938 171.216C250.336 171.692 249.624 172.008 248.867 172.135C248.11 172.262 247.334 172.195 246.61 171.941C245.706 171.624 244.922 171.034 244.368 170.253C243.814 169.472 243.517 168.538 243.517 167.58C243.517 166.622 243.814 165.688 244.368 164.907C244.922 164.126 245.706 163.536 246.61 163.22C247.334 162.965 248.11 162.898 248.867 163.025C249.624 163.152 250.336 163.468 250.938 163.945C251.746 164.579 252.302 165.48 252.507 166.487C252.613 166.862 252.613 167.259 252.507 167.634Z" fill="#263238"/>
<path d="M334.327 385.993L362.665 482.464H354.701L315.63 385.322L334.327 385.993Z" fill="#6F4439"/>
<path d="M264.798 385.993L293.136 481.544H285.172L246.101 385.322L264.798 385.993Z" fill="#6F4439"/>
<path d="M178.476 385.993L152.789 481.544H160.753L197.184 385.322L178.476 385.993Z" fill="#AE7461"/>
<path d="M261.671 385.993L237.326 481.544H245.289L280.378 385.322L261.671 385.993Z" fill="#AE7461"/>
<path d="M163.122 344.163C163.122 344.163 160.958 315.078 165.34 306.769C169.722 298.459 212.353 281.623 212.353 281.623C212.353 281.623 241.567 235.486 261.119 225.727C280.671 215.967 356.952 217.309 368.042 232.381C379.133 247.453 366.711 286.936 360.944 310.891L340.094 369.438L334.338 385.993H175.544L163.122 344.163Z" fill="#006FCC"/>
<path d="M360.901 231.916C360.946 232.015 360.986 232.116 361.02 232.219C361.085 232.414 361.193 232.717 361.302 233.117C361.54 233.928 361.853 235.129 362.167 236.698C363.048 241.157 363.379 245.706 363.152 250.245C362.952 253.399 362.59 256.541 362.07 259.658C361.55 263.034 360.934 266.637 360.241 270.478C358.867 278.052 357.233 286.449 355.394 295.31V295.451L355.275 295.505C352.894 296.706 350.384 297.972 347.809 299.216C332.424 306.72 316.631 313.355 300.504 319.093C294.315 321.257 289.262 322.934 285.756 324.027L281.71 325.26L280.628 325.563L280.26 325.65L280.606 325.509L281.688 325.152L285.702 323.821C289.186 322.652 294.218 320.964 300.385 318.714C316.438 312.846 332.174 306.142 347.528 298.632C350.103 297.388 352.613 296.111 354.994 294.921L354.842 295.115C356.692 286.254 358.348 277.879 359.754 270.294C360.458 266.507 361.096 262.915 361.626 259.55C362.156 256.185 362.622 253.058 362.784 250.191C363.04 245.673 362.768 241.142 361.972 236.687C361.691 235.119 361.41 233.918 361.204 233.106C361.107 232.727 361.031 232.424 360.966 232.186C360.934 232.099 360.912 232.008 360.901 231.916Z" fill="#263238"/>
<path d="M183.615 367.934C184.392 370.889 184.988 373.888 185.401 376.915C185.995 379.913 186.407 382.945 186.634 385.993C185.856 383.038 185.26 380.039 184.849 377.012C184.254 374.014 183.843 370.982 183.615 367.934Z" fill="#263238"/>
<path d="M265.815 385.322C265.663 385.322 267.438 374.177 269.775 360.501C272.112 346.824 274.103 335.755 274.287 335.777C274.471 335.799 272.675 346.911 270.337 360.598C268 374.285 265.977 385.343 265.815 385.322Z" fill="#263238"/>
<path d="M74.5604 393.275L52.7364 420.898C52.7364 420.898 17.3117 407.99 12.7998 412.707L64.8332 456.95L100.626 415.304L74.5604 393.275Z" fill="#263238"/>
<path d="M70.7411 432.324C71.1137 432.901 71.2601 433.596 71.1523 434.275C71.0445 434.954 70.6901 435.569 70.1569 436.003C69.5907 436.394 68.8964 436.553 68.2164 436.448C67.5364 436.344 66.9222 435.983 66.4997 435.44C66.1089 434.827 65.959 434.091 66.0788 433.373C66.1987 432.656 66.5799 432.009 67.1489 431.556C68.3391 430.863 70.3949 431.285 70.8818 432.551" fill="#E0E0E0"/>
<path d="M64.8334 456.95L68.2742 452.622L17.0956 411.809C17.0956 411.809 13.9253 410.846 12.7676 412.707L64.8334 456.95Z" fill="#455A64"/>
<path d="M52.1197 419.913C51.9141 420.184 53.0827 421.374 53.6345 423.257C54.1863 425.139 53.9483 426.773 54.2729 426.871C54.5975 426.968 55.4631 425.172 54.7489 422.911C54.0348 420.649 52.2603 419.643 52.1197 419.913Z" fill="white"/>
<path d="M44.7408 417.533C44.4703 417.728 45.206 419.102 45.1519 420.909C45.0978 422.716 44.3837 424.068 44.6542 424.274C44.9247 424.479 46.2989 423.192 46.3205 420.92C46.3421 418.647 44.9572 417.295 44.7408 417.533Z" fill="white"/>
<path d="M36.0847 421.428C36.2686 421.677 37.7077 420.714 38.2487 418.766C38.7897 416.819 38.0647 415.261 37.7726 415.38C37.4805 415.499 37.5887 416.862 37.1234 418.453C36.6581 420.043 35.8575 421.19 36.0847 421.428Z" fill="white"/>
<path d="M57.7898 414.179C57.7032 414.493 59.1639 415.142 60.5164 416.451C61.8689 417.76 62.6047 419.178 62.9185 419.069C63.2323 418.961 62.9185 417.143 61.3171 415.618C59.7158 414.092 57.8331 413.865 57.7898 414.179Z" fill="white"/>
<path d="M121.995 346.337C121.995 348.848 110.808 463.875 110.808 463.875L148.602 468.203C148.602 468.203 158.004 410.186 159.422 399.496C160.839 388.806 165.773 369.644 165.773 369.644L246.393 361.669C246.393 361.669 206.846 306.357 203.005 306.119C199.164 305.881 121.995 346.337 121.995 346.337Z" fill="#263238"/>
<path d="M56.686 409.905C56.686 409.905 124.343 318.173 128.25 313.369C132.156 308.565 136.657 303.469 150.766 303.469C164.875 303.469 203.048 306.174 203.048 306.174L223.217 296.987L296.468 308.273C296.468 308.273 299.173 343.102 294.369 351.217C289.565 359.332 261.043 361.42 255.038 361.723C249.033 362.026 156.024 349.399 156.024 349.399C156.024 349.399 137.804 374.697 129.05 384.413C122.818 391.349 89.5247 434.077 89.5247 434.077L56.686 409.905Z" fill="#263238"/>
<path d="M89.5789 434.823L55.9287 410.013L56.2425 409.58C56.9242 408.661 123.965 317.794 127.828 313.033C131.485 308.532 136.04 302.928 150.766 302.928C164.313 302.928 200.419 305.449 202.951 305.622L223.141 296.425H223.303L296.933 307.775V308.197C297.042 309.636 299.595 343.297 294.769 351.477C289.554 360.274 258.522 362.07 254.995 362.297C249.141 362.632 163.166 350.947 156.208 350.005C154.239 352.732 137.576 375.714 129.386 384.813C123.24 391.652 90.2173 434.012 89.8819 434.434L89.5789 434.823ZM57.4327 409.786L89.3733 433.33C92.8357 428.883 122.753 390.559 128.607 384.056C137.263 374.459 155.365 349.335 155.548 349.075L155.732 348.815H156.057C156.988 348.945 249.109 361.431 254.963 361.139C256.348 361.063 288.851 359.354 293.861 350.893C298.243 343.503 296.208 312.709 295.916 308.695L223.292 297.55L203.146 306.725H203.005C202.626 306.725 164.702 304.02 150.766 304.02C136.559 304.02 132.188 309.43 128.672 313.758C124.96 318.281 62.5073 402.915 57.4327 409.786Z" fill="#455A64"/>
<path d="M148.504 337.238C150.097 339.211 151.544 341.297 152.832 343.481C154.292 345.563 155.594 347.751 156.728 350.027C155.132 348.056 153.685 345.97 152.4 343.784C150.94 341.702 149.638 339.514 148.504 337.238Z" fill="#455A64"/>
<path d="M113.859 441.131L115.774 476.286C115.774 476.286 80.7065 490.049 80.436 496.638L148.721 495.35L147.964 440.45L113.859 441.131Z" fill="#263238"/>
<path d="M136.851 472.931C137.513 473.119 138.082 473.544 138.449 474.125C138.816 474.706 138.956 475.402 138.842 476.08C138.677 476.746 138.264 477.323 137.686 477.694C137.108 478.064 136.411 478.199 135.737 478.071C135.037 477.871 134.436 477.418 134.05 476.8C133.665 476.183 133.522 475.444 133.649 474.728C134.082 473.429 135.888 472.39 137.111 473.007" fill="#E0E0E0"/>
<path d="M148.721 495.296L148.429 489.767L83.0653 493.067C83.0653 493.067 80.0682 494.474 80.4361 496.638L148.721 495.296Z" fill="#455A64"/>
<path d="M114.692 475.961C114.692 476.296 116.38 476.415 118.035 477.454C119.691 478.493 120.6 479.878 120.903 479.748C121.206 479.618 120.675 477.692 118.641 476.502C116.607 475.312 114.594 475.658 114.692 475.961Z" fill="white"/>
<path d="M107.572 479.055C107.496 479.38 108.957 479.921 110.115 481.306C111.273 482.691 111.63 484.184 111.954 484.163C112.279 484.141 112.463 482.258 110.991 480.549C109.52 478.839 107.572 478.742 107.572 479.055Z" fill="white"/>
<path d="M103.667 487.712C103.97 487.776 104.402 486.099 103.504 484.292C102.606 482.485 101.048 481.782 100.907 482.063C100.767 482.345 101.762 483.297 102.466 484.801C103.169 486.305 103.331 487.679 103.667 487.712Z" fill="white"/>
<path d="M115.125 467.9C115.276 468.203 116.791 467.716 118.685 467.803C120.578 467.889 122.05 468.463 122.212 468.171C122.374 467.878 120.946 466.721 118.728 466.645C116.51 466.569 114.963 467.64 115.125 467.9Z" fill="white"/>
<path d="M251.868 217.655L254.27 239.587L226.733 294.823C226.733 294.823 210.449 300.233 204.682 306.174L217.872 306.747C236.894 307.54 255.194 314.25 270.219 325.942C276.711 331.027 281.98 336.524 282.954 341.522C285.821 356.238 290.214 353.965 290.214 353.965L306.909 332.488L318.595 309.246L342.064 218.207L319.417 205.764L314.332 198.363L280.79 203.037L274.114 209.627L251.868 217.655Z" fill="#455A64"/>
<path d="M196.242 276.494L210.308 270.608L232.414 239.598C232.414 239.598 242.671 219.094 251.89 217.655C261.108 216.216 254.27 239.587 254.27 239.587L240.096 279.838L217.233 295.84L201.468 294.466L191.265 285.81L196.242 276.494Z" fill="#455A64"/>
<path d="M254.064 225.283C254.004 225.532 253.921 225.775 253.816 226.008C253.621 226.528 253.35 227.198 253.026 228.032C252.312 229.86 251.305 232.36 250.083 235.476C247.605 241.773 244.283 250.505 240.648 260.156C237.012 269.808 233.625 278.55 231.05 284.782C229.774 287.909 228.702 290.43 227.934 292.162L227.047 294.142C226.959 294.382 226.843 294.611 226.701 294.823C226.753 294.574 226.833 294.331 226.939 294.098C227.144 293.59 227.404 292.908 227.739 292.075C228.454 290.257 229.46 287.747 230.682 284.631C233.16 278.344 236.482 269.613 240.117 259.951C243.753 250.288 247.129 241.557 249.704 235.335C250.992 232.208 252.063 229.676 252.831 227.956L253.718 225.965C253.809 225.726 253.925 225.498 254.064 225.283Z" fill="#263238"/>
<path d="M281.666 224.374C281.34 223.904 281.057 223.404 280.822 222.881C280.271 221.799 279.567 220.414 278.658 218.726H279.026C278.29 220.349 277.436 222.275 276.289 224.32C275.088 226.569 273.54 228.614 271.701 230.379L271.171 230.866L271.225 230.152V230.033C271.636 224.45 272.307 219.419 272.88 215.805C273.183 213.998 273.454 212.559 273.66 211.531C273.739 211.005 273.865 210.487 274.038 209.984C274.037 210.514 273.982 211.044 273.876 211.563C273.724 212.645 273.519 214.128 273.281 215.891C272.783 219.516 272.199 224.547 271.788 230.109V230.228L271.322 230.001C273.111 228.27 274.632 226.283 275.834 224.104C276.981 222.091 277.879 220.187 278.658 218.586L278.853 218.185L279.026 218.586C279.816 220.295 280.465 221.723 280.974 222.816C281.248 223.315 281.48 223.836 281.666 224.374Z" fill="#263238"/>
<path d="M317.21 207.473C317.128 207.636 317.022 207.785 316.896 207.917L315.922 209.107C315.057 210.189 313.758 211.596 312.157 213.36C307.924 217.928 303.445 222.263 298.74 226.344C296.23 228.508 293.774 230.542 291.48 232.327L291.069 232.652V232.132C291.002 228.618 290.434 225.131 289.381 221.778L289.651 221.875L285.54 224.234C285.055 224.534 284.548 224.798 284.025 225.024C284.466 224.663 284.936 224.341 285.431 224.061L289.467 221.561L289.651 221.442L289.727 221.659C290.876 225.031 291.504 228.559 291.588 232.121L291.166 231.916C293.438 230.12 295.884 228.096 298.372 225.922C303.88 221.139 308.575 216.487 311.886 213.046C313.542 211.325 314.851 209.897 315.771 208.923L316.853 207.841C316.959 207.707 317.079 207.584 317.21 207.473Z" fill="#263238"/>
<path d="M315.176 201.252L317.459 154.726C318.908 140.162 311.637 127.167 297.03 126.129H295.678C289.1 126.043 282.73 128.436 277.836 132.833C272.942 137.229 269.883 143.307 269.266 149.857C268.087 162.495 266.94 176.463 266.929 183.258C266.929 197.324 280.941 199.672 280.941 199.672C280.941 199.672 280.573 208.209 280.335 212.321L283.278 223.033L315.176 201.252Z" fill="#FFBF9D"/>
<path d="M280.974 199.661C287.473 199.738 293.857 197.947 299.368 194.5C299.368 194.5 294.823 204.996 280.822 203.557L280.974 199.661Z" fill="#FF9A6C"/>
<path d="M273.454 162.657C273.442 163.181 273.636 163.688 273.994 164.07C274.352 164.453 274.845 164.68 275.369 164.702C275.624 164.724 275.88 164.695 276.124 164.617C276.367 164.539 276.593 164.413 276.787 164.247C276.982 164.081 277.141 163.878 277.256 163.649C277.371 163.421 277.439 163.172 277.457 162.917C277.472 162.394 277.28 161.887 276.924 161.504C276.568 161.121 276.075 160.894 275.553 160.872C275.297 160.848 275.039 160.876 274.794 160.953C274.55 161.031 274.323 161.156 274.127 161.322C273.932 161.489 273.771 161.693 273.656 161.922C273.54 162.151 273.471 162.401 273.454 162.657Z" fill="#263238"/>
<path d="M272.199 155.57C272.448 155.84 273.984 154.737 276.137 154.769C278.29 154.802 279.87 155.905 280.108 155.646C280.346 155.386 279.978 155.051 279.286 154.564C278.368 153.881 277.259 153.502 276.116 153.482C274.993 153.465 273.894 153.806 272.978 154.455C272.307 154.986 272.08 155.451 272.199 155.57Z" fill="#263238"/>
<path d="M292.281 163.068C292.272 163.591 292.466 164.097 292.824 164.479C293.181 164.86 293.673 165.088 294.196 165.113C294.45 165.137 294.706 165.11 294.95 165.033C295.193 164.956 295.419 164.831 295.614 164.666C295.808 164.5 295.968 164.298 296.083 164.07C296.198 163.842 296.266 163.593 296.284 163.339C296.296 162.816 296.104 162.309 295.748 161.925C295.393 161.541 294.902 161.311 294.38 161.283C294.124 161.259 293.866 161.287 293.621 161.364C293.377 161.442 293.15 161.567 292.954 161.734C292.759 161.9 292.598 162.104 292.483 162.333C292.367 162.562 292.298 162.812 292.281 163.068Z" fill="#263238"/>
<path d="M293.352 156.349C293.601 156.619 295.137 155.516 297.291 155.548C299.444 155.581 301.023 156.63 301.261 156.414C301.499 156.198 301.132 155.83 300.45 155.332C299.522 154.676 298.416 154.321 297.28 154.315C296.158 154.292 295.058 154.63 294.142 155.278C293.471 155.808 293.222 156.23 293.352 156.349Z" fill="#263238"/>
<path d="M285.399 172.839C284.262 172.472 283.085 172.243 281.893 172.157C281.352 172.092 280.811 171.984 280.736 171.605C280.702 171.034 280.838 170.466 281.125 169.971C281.666 168.64 282.207 167.256 282.813 165.795C285.15 159.844 286.86 154.975 286.622 154.867C286.384 154.758 284.285 159.519 281.948 165.459C281.374 166.931 280.866 168.327 280.325 169.668C279.967 170.33 279.855 171.097 280.011 171.832C280.086 172.03 280.206 172.208 280.362 172.35C280.518 172.493 280.705 172.597 280.909 172.655C281.212 172.738 281.525 172.786 281.839 172.795C283.019 172.961 284.215 172.975 285.399 172.839Z" fill="#263238"/>
<path d="M292.746 149.587C293.027 150.138 295.137 149.587 297.68 149.587C300.222 149.587 302.354 149.998 302.624 149.424C302.733 149.154 302.311 148.656 301.423 148.202C300.248 147.633 298.952 147.358 297.647 147.401C296.338 147.41 295.051 147.733 293.893 148.342C293.027 148.807 292.616 149.316 292.746 149.587Z" fill="#263238"/>
<path d="M272.188 149.229C272.621 149.727 274.352 149.229 276.516 149.305C278.68 149.381 280.411 149.738 280.844 149.24C281.028 149.002 280.768 148.494 280 148.018C278.933 147.428 277.735 147.119 276.516 147.119C275.297 147.119 274.099 147.428 273.032 148.018C272.253 148.483 271.993 148.981 272.188 149.229Z" fill="#263238"/>
<path d="M316.203 164.615C316.441 164.507 325.887 161.878 325.455 171.486C325.022 181.094 315.479 178.671 315.479 178.389C315.479 178.108 316.203 164.615 316.203 164.615Z" fill="#FFBF9D"/>
<path d="M318.573 174.884C318.573 174.884 318.735 175.013 319.006 175.154C319.395 175.361 319.849 175.408 320.272 175.284C321.3 174.949 322.23 173.38 322.349 171.648C322.413 170.828 322.291 170.003 321.992 169.236C321.915 168.932 321.765 168.651 321.556 168.418C321.347 168.184 321.085 168.004 320.791 167.894C320.601 167.834 320.395 167.843 320.211 167.92C320.026 167.998 319.876 168.138 319.785 168.316C319.644 168.576 319.698 168.77 319.644 168.781C319.59 168.792 319.439 168.608 319.536 168.219C319.603 167.983 319.748 167.777 319.947 167.634C320.219 167.447 320.553 167.373 320.878 167.429C321.268 167.526 321.627 167.721 321.92 167.995C322.214 168.27 322.432 168.615 322.555 168.998C322.925 169.849 323.085 170.777 323.02 171.703C322.869 173.629 321.797 175.403 320.391 175.738C320.13 175.8 319.859 175.803 319.597 175.747C319.335 175.691 319.089 175.577 318.876 175.414C318.573 175.122 318.541 174.905 318.573 174.884Z" fill="#FF9A6C"/>
<path d="M250.613 135.661C250.798 135.111 251.185 134.651 251.695 134.374C252.84 133.911 254.087 133.762 255.309 133.941C258.37 134.016 261.409 133.39 264.192 132.112C263.262 131.612 262.418 130.965 261.693 130.197C260.914 129.417 260.365 128.439 260.103 127.369C259.842 126.299 259.879 125.178 260.21 124.127C260.266 123.929 260.366 123.746 260.503 123.592C260.639 123.438 260.81 123.318 261 123.24C261.638 123.077 262.158 123.716 262.569 124.214C263.089 124.99 263.808 125.612 264.652 126.014C265.495 126.416 266.432 126.582 267.362 126.497C268.65 126.471 269.916 126.153 271.063 125.566C271.105 125.525 271.145 125.482 271.182 125.436L272.718 124.019C276.484 120.589 279.697 118.241 282.954 117.094C287.715 115.406 295.592 114.93 300.428 116.466C305.265 118.003 309.474 122.115 309.939 127.157C312.774 124.993 316.896 125.155 320.175 126.637H320.261C323.918 128.12 325.866 132.134 326.753 135.975C326.807 136.191 326.851 136.397 326.894 136.613C328.062 138.67 329.705 140.418 331.687 141.71C332.044 141.937 332.445 142.207 332.466 142.629C332.488 143.051 332.131 143.365 331.785 143.592C330.857 144.176 329.811 144.546 328.722 144.674C329.004 145.595 329.366 146.489 329.804 147.347C330.194 148.072 330.648 148.948 330.259 149.662C330.079 149.928 329.821 150.133 329.522 150.249C329.222 150.365 328.894 150.387 328.582 150.311C327.964 150.144 327.386 149.853 326.883 149.457C327.262 150.463 327.63 151.48 327.965 152.486C326.607 152.654 325.229 152.502 323.94 152.043C322.999 155.548 322.122 162.094 321.105 164.453C318.552 164.388 317.946 164.085 316.637 164.453C314.959 164.929 315.457 167.905 313.336 166.974C312.254 166.498 310.74 162.246 310.415 161.11C308.296 153.529 307.827 145.581 309.041 137.804C307.568 136.092 305.779 134.682 303.772 133.649L303.934 133.8C300.06 132.274 295.678 130.738 291.88 132.426C288.927 133.724 287.098 136.657 284.837 138.918C282.922 141.025 280.581 142.701 277.97 143.836C275.358 144.97 272.535 145.536 269.689 145.497C268.953 149.716 268.488 156.641 268.109 160.58L265.079 152.519C264.83 152.043 264.625 151.567 264.43 151.09L264.354 150.95C264.041 150.182 263.738 149.413 263.337 148.656C262.861 149.013 262.271 149.186 261.677 149.144C261.083 149.103 260.524 148.848 260.102 148.428C259.681 148.007 259.424 147.449 259.381 146.855C259.337 146.261 259.508 145.671 259.864 145.194C260.22 144.749 260.644 144.362 261.119 144.047C260.644 144.491 260.066 144.81 259.437 144.974C258.808 145.139 258.148 145.143 257.516 144.988C256.88 144.762 256.335 144.334 255.966 143.769C255.597 143.205 255.423 142.534 255.471 141.861C255.544 141.409 255.734 140.984 256.022 140.629C256.311 140.274 256.688 140.001 257.116 139.838C255.35 139.895 253.607 139.428 252.106 138.496C251.154 137.858 250.223 136.884 250.613 135.661Z" fill="#263238"/>
<path d="M305.492 128.574C305.973 128.993 306.425 129.445 306.844 129.927C307.901 131.316 308.576 132.957 308.803 134.687C308.99 135.871 309.059 137.071 309.008 138.269C309.008 139.567 308.792 140.941 308.629 142.402C308.438 143.928 308.337 145.463 308.327 147.001C308.335 147.82 308.407 148.638 308.543 149.446C308.628 150.309 308.933 151.137 309.43 151.848C309.666 152.13 309.969 152.348 310.311 152.48C310.654 152.613 311.025 152.656 311.389 152.605C312.083 152.501 312.724 152.174 313.217 151.675C314.021 150.656 314.54 149.443 314.721 148.158H314.429C314.802 149.238 315.335 150.255 316.009 151.177C316.66 152.036 317.617 152.609 318.681 152.778C319.173 152.852 319.676 152.784 320.131 152.584C320.56 152.389 320.918 152.068 321.159 151.664C321.385 151.292 321.509 150.866 321.516 150.43C321.506 150.033 321.361 149.652 321.105 149.348L320.953 149.478C321.748 150.472 322.743 151.287 323.875 151.87C324.171 152.026 324.478 152.16 324.795 152.27C324.901 152.318 325.014 152.351 325.13 152.367L324.816 152.227C324.611 152.129 324.308 151.989 323.929 151.772C322.835 151.166 321.877 150.341 321.116 149.348L320.953 149.478C321.171 149.783 321.288 150.148 321.288 150.522C321.288 150.897 321.171 151.262 320.953 151.567C320.734 151.929 320.409 152.215 320.023 152.389C319.606 152.563 319.149 152.62 318.703 152.551C317.713 152.378 316.826 151.832 316.225 151.026C315.579 150.119 315.065 149.124 314.7 148.072L314.516 147.617L314.407 148.093C314.228 149.321 313.732 150.48 312.968 151.458C312.528 151.906 311.955 152.198 311.334 152.291C311.025 152.337 310.71 152.303 310.418 152.191C310.126 152.079 309.868 151.894 309.668 151.653C309.21 150.984 308.931 150.21 308.857 149.403C308.721 148.613 308.648 147.813 308.64 147.011C308.639 145.485 308.733 143.96 308.922 142.445C309.073 140.985 309.225 139.6 309.268 138.29C309.311 137.073 309.227 135.855 309.019 134.655C308.769 132.898 308.048 131.241 306.931 129.862C306.529 129.353 306.042 128.917 305.492 128.574Z" fill="#455A64"/>
<path d="M261.433 140.379L261.541 140.487C261.638 140.552 261.746 140.649 261.887 140.757C262.067 140.906 262.259 141.04 262.461 141.158C262.727 141.339 263.005 141.501 263.294 141.645C265.142 142.582 267.195 143.043 269.266 142.986C272.36 142.928 275.369 141.965 277.922 140.216C280.997 138.072 283.6 135.321 285.572 132.134C286.654 130.478 287.574 128.769 288.558 127.2C289.466 125.67 290.584 124.275 291.88 123.056C293.054 121.962 294.482 121.177 296.035 120.773C296.744 120.61 297.474 120.559 298.199 120.621C298.862 120.684 299.514 120.837 300.136 121.076C301.21 121.5 302.183 122.145 302.992 122.969C303.605 123.604 304.109 124.335 304.485 125.133C304.779 125.828 304.993 126.554 305.124 127.297C305.124 127.297 305.124 127.297 305.124 127.146C305.124 126.994 305.124 126.886 305.124 126.713C305.03 126.16 304.874 125.619 304.659 125.101C304.284 124.304 303.784 123.574 303.176 122.937C302.363 122.077 301.374 121.402 300.276 120.957C299.634 120.704 298.961 120.536 298.275 120.459C297.529 120.394 296.777 120.441 296.046 120.6C294.431 121 292.943 121.8 291.718 122.926C290.39 124.156 289.246 125.57 288.32 127.124C287.325 128.704 286.416 130.37 285.323 132.058C283.361 135.208 280.785 137.931 277.749 140.065C275.258 141.785 272.325 142.754 269.299 142.856C267.26 142.926 265.235 142.507 263.391 141.634C262.715 141.252 262.062 140.833 261.433 140.379Z" fill="#455A64"/>
<path d="M260.427 134.168C260.571 134.313 260.735 134.437 260.914 134.536C261.378 134.849 261.866 135.124 262.374 135.358C263.122 135.718 263.901 136.012 264.701 136.235C266.666 136.788 268.723 136.942 270.749 136.689C271.575 136.59 272.389 136.416 273.184 136.17C273.722 136.014 274.246 135.815 274.752 135.575C274.945 135.501 275.127 135.403 275.293 135.282C275.293 135.282 274.471 135.585 273.129 135.942C271.366 136.404 269.538 136.572 267.719 136.44C266.723 136.356 265.735 136.19 264.766 135.942C263.977 135.739 263.206 135.471 262.461 135.142C261.184 134.579 260.459 134.103 260.427 134.168Z" fill="#455A64"/>
<path d="M285.237 179.406C285.367 179.06 287.585 180.066 290.019 178.876C292.454 177.686 293.265 175.219 293.59 175.349C293.914 175.479 293.785 176.063 293.363 177.069C292.792 178.376 291.781 179.44 290.506 180.077C289.279 180.688 287.862 180.797 286.557 180.38C285.648 180.045 285.161 179.547 285.237 179.406Z" fill="#263238"/>
<path d="M265.815 385.322C265.815 384.64 273.389 335.777 276.245 329.545C278.55 324.611 297.009 320.759 316.788 312.774C338.082 304.183 362.762 303.588 362.762 303.588L331.514 375.714L265.815 385.322Z" fill="#006FCC"/>
<path d="M276.884 281.699L258.847 283.04V300.287L279.232 302.722L276.884 281.699Z" fill="#FFBF9D"/>
<path d="M334.067 214.106C342.972 217.763 351.228 225.662 350.687 235.898C349.886 251.046 346.359 283.625 345.504 292.01C344.422 302.96 340.722 312.179 324.611 312.785C308.5 313.39 284.793 309.474 284.793 309.474C284.793 309.474 276.256 313.802 273.897 309.052C273.281 307.786 269.039 282.283 269.039 282.283C269.039 281.937 271.127 279.513 274.114 278.02C275.75 277.211 277.634 277.06 279.379 277.597C281.124 278.134 282.596 279.319 283.495 280.909L314.873 279.881L321.094 250.342" fill="#455A64"/>
<path d="M321.127 250.342C321.111 250.513 321.086 250.683 321.051 250.851C320.975 251.208 320.878 251.706 320.759 252.355C320.489 253.686 320.088 255.601 319.58 258.154C318.498 263.24 317.005 270.63 315.079 279.924V280.054H314.938L292.865 280.811L286.557 281.028L284.934 281.082H284.123H283.484C283.484 281.082 283.084 280.855 283.268 280.952L283.16 280.79C282.607 279.863 281.838 279.084 280.92 278.518C279.98 277.927 278.911 277.574 277.804 277.489C276.698 277.405 275.587 277.59 274.568 278.031C273.518 278.51 272.533 279.121 271.636 279.848C271.174 280.208 270.733 280.595 270.316 281.006C270.111 281.212 269.905 281.428 269.721 281.645C269.537 281.861 269.537 281.872 269.451 281.98C269.364 282.088 269.278 282.283 269.288 282.229C270.284 288.158 271.344 294.391 272.534 300.839C272.837 302.451 273.14 304.085 273.443 305.719C273.606 306.531 273.768 307.353 273.963 308.164C274.016 308.553 274.161 308.924 274.385 309.246C274.484 309.414 274.596 309.573 274.72 309.722L275.153 310.123C275.848 310.55 276.623 310.831 277.43 310.95C278.237 311.069 279.06 311.023 279.849 310.815C281.527 310.507 283.154 309.968 284.685 309.214H284.772H284.858C291.242 310.22 297.983 311.075 304.864 311.724C309.614 312.157 314.332 312.471 318.985 312.557C323.637 312.644 328.246 312.557 332.531 311.27C334.639 310.623 336.609 309.593 338.342 308.229C340.028 306.879 341.405 305.181 342.377 303.252C344.126 299.411 345.132 295.273 345.342 291.058C347.062 274.568 348.588 259.68 349.67 247.226C349.941 244.11 350.168 241.135 350.352 238.321C350.449 236.904 350.536 235.541 350.514 234.231C350.514 233.571 350.384 232.922 350.33 232.295C350.276 231.667 350.081 231.05 349.951 230.444C349.357 228.219 348.367 226.119 347.03 224.244C345.909 222.668 344.621 221.217 343.189 219.916C341.179 218.132 338.959 216.599 336.578 215.35C335.766 214.907 335.128 214.626 334.695 214.431L334.057 214.117C334.057 214.117 334.284 214.193 334.717 214.377C335.15 214.561 335.799 214.831 336.632 215.253C339.047 216.464 341.3 217.973 343.34 219.743C344.794 221.045 346.106 222.496 347.257 224.071C348.621 225.968 349.636 228.094 350.254 230.347C350.384 230.964 350.536 231.58 350.655 232.219C350.774 232.857 350.817 233.517 350.849 234.188C350.849 235.541 350.849 236.915 350.709 238.321C350.536 241.135 350.319 244.121 350.07 247.237C349.053 259.745 347.539 274.601 345.851 291.09C345.635 295.375 344.606 299.579 342.821 303.479C341.813 305.475 340.393 307.234 338.655 308.64C336.865 310.042 334.833 311.106 332.661 311.778C328.333 313.12 323.583 313.152 318.941 313.098C314.3 313.044 309.539 312.698 304.778 312.265C297.886 311.616 291.145 310.761 284.739 309.744H284.912C283.327 310.516 281.646 311.073 279.914 311.4C279.051 311.605 278.156 311.635 277.282 311.486C276.409 311.337 275.574 311.013 274.828 310.534L274.33 310.069C274.182 309.898 274.052 309.713 273.941 309.517C273.691 309.142 273.525 308.717 273.454 308.273C273.248 307.439 273.097 306.617 272.935 305.795C272.632 304.161 272.329 302.549 272.026 300.915C270.868 294.423 269.862 288.223 268.78 282.294C268.819 282.091 268.908 281.901 269.039 281.742C269.137 281.623 269.234 281.493 269.332 281.385C269.429 281.277 269.743 280.93 269.959 280.714C270.388 280.285 270.843 279.884 271.322 279.513C272.26 278.767 273.284 278.139 274.374 277.641C276.006 276.95 277.832 276.869 279.519 277.413C281.206 277.958 282.64 279.091 283.56 280.606L283.679 280.79C283.863 280.898 283.419 280.649 283.473 280.682H284.058H284.88L286.503 280.628L292.811 280.433L314.884 279.751L314.711 279.892C316.702 270.619 318.281 263.24 319.374 258.165L320.64 252.376C320.792 251.727 320.9 251.24 320.975 250.883L321.127 250.342Z" fill="#263238"/>
<path d="M332.174 216.573C332.239 216.649 331.092 217.763 329.469 219.819C327.415 222.515 325.716 225.464 324.416 228.594C323.122 231.723 322.192 234.99 321.646 238.332C321.213 240.896 321.127 242.519 321.019 242.509C320.974 242.131 320.974 241.75 321.019 241.373C321.019 240.637 321.116 239.576 321.268 238.267C321.711 234.861 322.603 231.529 323.918 228.356C324.649 226.613 325.51 224.928 326.494 223.314C327.302 222 328.198 220.742 329.177 219.549C329.853 218.749 330.576 217.991 331.341 217.276C331.828 216.8 332.174 216.541 332.174 216.573Z" fill="#263238"/>
<path d="M328.441 293.092C328.344 293.092 328.106 292.01 327.359 290.376C325.43 286.083 321.89 282.721 317.502 281.017C315.825 280.379 314.711 280.195 314.732 280.097C314.754 280 315.014 280.097 315.522 280.097C316.24 280.195 316.946 280.362 317.632 280.595C318.658 280.928 319.644 281.371 320.575 281.915C321.715 282.582 322.779 283.373 323.745 284.274C324.693 285.193 325.539 286.212 326.266 287.314C326.853 288.216 327.342 289.177 327.727 290.182C327.998 290.852 328.201 291.548 328.333 292.259C328.452 292.811 328.484 293.081 328.441 293.092Z" fill="#263238"/>
<path d="M285.042 308.576C284.956 308.576 285.389 307.028 285.746 304.496C286.197 301.209 286.381 297.891 286.297 294.574C286.249 292.765 286.104 290.959 285.865 289.164C285.654 287.703 285.347 286.257 284.945 284.836C284.242 282.391 283.398 281.039 283.495 280.985C283.739 281.267 283.947 281.58 284.112 281.915C284.339 282.291 284.534 282.686 284.696 283.094C284.945 283.619 285.154 284.162 285.324 284.717C285.802 286.154 286.164 287.627 286.406 289.121C286.682 290.949 286.845 292.792 286.892 294.639C286.991 297.988 286.748 301.338 286.168 304.637C285.993 305.638 285.761 306.627 285.475 307.602C285.368 307.942 285.223 308.268 285.042 308.576Z" fill="#263238"/>
<path d="M162.57 243.526C162.57 243.526 163.793 240.594 166.227 239.988C166.227 239.988 178.303 243.234 181.83 247.086C181.83 247.086 182.533 244.337 189.014 238.819C193.831 234.705 199.862 232.28 206.186 231.916L212.602 235.952L186.883 253.967L179.233 256.64L162.57 243.526Z" fill="#FAFAFA"/>
<path d="M162.57 243.526C162.685 243.588 162.793 243.66 162.895 243.742L163.793 244.424L167.169 247.01L179.363 256.434H179.157L186.796 253.74L212.148 235.876L212.44 235.67V236.146C210.276 234.772 208.112 233.42 206.023 232.111H206.175C200.861 232.424 195.738 234.203 191.373 237.25C189.442 238.649 187.632 240.209 185.963 241.914C185.164 242.701 184.412 243.536 183.713 244.413C183.044 245.21 182.494 246.099 182.079 247.053L181.949 247.399L181.7 247.15C180.43 245.937 178.968 244.942 177.372 244.207C175.964 243.503 174.519 242.874 173.044 242.325C170.339 241.243 168.002 240.55 166.141 240.009H166.195C164.975 240.429 163.941 241.264 163.274 242.368C163.082 242.644 162.905 242.929 162.743 243.223C162.624 243.418 162.581 243.515 162.57 243.515C162.591 243.401 162.631 243.291 162.689 243.19C162.833 242.885 162.996 242.589 163.176 242.303C163.856 241.154 164.928 240.29 166.195 239.869H166.26C168.132 240.366 170.491 241.07 173.217 242.087C174.691 242.624 176.136 243.238 177.545 243.926C179.179 244.68 180.68 245.692 181.992 246.923L181.614 247.021C182.031 245.997 182.604 245.045 183.312 244.197C184.015 243.305 184.77 242.456 185.574 241.654C187.276 239.938 189.118 238.367 191.081 236.958C195.539 233.819 200.786 231.99 206.229 231.678H206.305H206.381L212.797 235.703L213.154 235.93L212.808 236.179L212.515 236.385L187.013 254.162L179.352 256.802H179.244L179.147 256.726L167.007 246.988L163.761 244.337L162.917 243.645C162.797 243.619 162.68 243.579 162.57 243.526Z" fill="#263238"/>
<path d="M158.329 243.028L159.054 241.567L177.167 251.652C177.167 251.652 183.118 251.284 183.237 247.324C183.237 247.324 212.894 234.924 213.619 235.292C214.344 235.66 261.844 275.109 261.844 275.109L218.943 284.252L199.088 275.466L158.329 243.028Z" fill="#006FCC"/>
<path d="M213.479 281.839C213.381 281.958 205.169 275.293 195.085 266.962C185 258.63 177.015 251.814 177.113 251.652C177.21 251.489 185.422 258.144 195.453 266.529C205.483 274.915 213.576 281.71 213.479 281.839Z" fill="#263238"/>
<path d="M225.056 282.759C224.948 282.878 215.599 275.077 204.173 265.339C192.747 255.601 183.615 247.605 183.615 247.486C183.615 247.367 193.061 255.168 204.498 264.917C215.935 274.666 225.11 282.64 225.056 282.759Z" fill="#263238"/>
<path d="M183.486 259.745C183.366 259.745 179.32 259.355 178.357 261.119C177.394 262.883 177.275 263.846 177.664 264.895C178.324 266.058 179.108 267.146 180.001 268.141L180.694 269.418C179.97 270.901 179.743 272.578 180.045 274.2C180.537 275.595 181.453 276.802 182.663 277.652C182.663 277.652 182.988 282.921 186.191 282.965C186.423 283.79 186.914 284.518 187.592 285.042C188.27 285.566 189.099 285.858 189.956 285.875C192.899 285.799 194.381 286.557 197.649 284.869C200.917 283.181 204.704 281.493 205.537 279.805C206.37 278.117 203.459 277.933 203.459 277.933C203.459 277.933 205.039 273.605 199.943 274.168C199.943 274.168 200.516 269.678 197.249 269.137C193.954 268.826 190.64 268.779 187.337 268.996L184.719 265.837C184.719 265.837 186.623 265.296 186.732 263.608C186.84 261.92 185.022 259.799 183.486 259.745Z" fill="#FFBF9D"/>
<path d="M250.147 276.895C249.823 277.003 245.895 278.756 243.277 278.42C240.658 278.085 220.36 266.973 217.417 266.096C214.474 265.22 209.453 266.096 213.089 269.916C216.724 273.735 227.826 279.957 228.042 280.281C228.315 280.967 228.536 281.672 228.702 282.391L217.352 278.063C217.352 278.063 209.053 273.919 207.744 276.429C206.435 278.94 208.404 280.357 210.47 281.006C212.537 281.655 214.798 282.359 214.798 282.359C214.798 282.359 217.201 286.795 219.592 288.537C221.983 290.279 232.911 297.269 234.74 298.037C236.568 298.805 258.966 300.547 259.399 300.201C259.831 299.855 259.399 283.506 259.399 283.506L251.543 276.419L250.147 276.895Z" fill="#FFBF9D"/>
</svg>
